<svg width="418" height="304" viewBox="0 0 418 304" fill="none" xmlns="http://www.w3.org/2000/svg">
<mask id="mask0_517_40999" style="mask-type:luminance" maskUnits="userSpaceOnUse" x="0" y="0" width="418" height="304">
<path d="M377.754 -7.79944e-05L0 62.1123L39.7505 303.866L417.504 241.754L377.754 -7.79944e-05Z" fill="white"/>
</mask>
<g mask="url(#mask0_517_40999)">
<path d="M230.752 101.389L234.487 96.3647C231.821 88.8298 223.917 86.2921 219.033 86.5726C205.88 87.3272 200.75 97.2904 200.319 111.988C199.531 138.815 223.851 246.917 223.851 246.917C223.851 243.941 240.939 128.556 235.087 98.589L230.752 101.389Z" fill="#1EC6CF"/>
<path d="M68.1338 216.156L68.2514 220.319L66.1584 215.826C62.2586 215.268 58.9722 215.398 56.5151 216.397C34.5564 225.327 79.1264 250.187 79.1264 250.187C79.1264 250.187 65.2688 244.373 52.2824 241.385L52.8069 245.538L50.4836 241.13C40.4224 238.987 31.3709 238.72 30.4961 244.346C29.6723 249.643 33.7749 253.855 40.185 257.151L46.7901 256.301L43.1854 258.56C57.7681 264.834 80.5888 267.284 88.3487 267.42C80.9556 267.473 62.9592 268.08 52.888 272.048L54.9746 274.503L50.5124 273.121C47.0513 274.9 45.1021 277.223 45.8512 280.253C47.2838 286.047 73.128 283.969 73.128 283.969L166.128 267.791L166.689 267.965C166.689 267.965 99.9665 222.208 68.1338 216.156Z" fill="#1EC6CF"/>
<path d="M369.246 222.425C366.079 214.387 347.436 214.936 324.936 223.327C332.751 219.14 343.068 210.836 348.474 206.928L344.024 205.029L352.178 204.074C358.159 199.115 360.843 194.768 358.116 191.685C356.078 189.381 352.36 188.895 347.561 189.697L345.775 194.634L345.567 190.089C333.57 192.78 330.498 191.256 315.244 200.541C324.583 193.567 325.789 191.681 326.11 189.445L320.182 187.938L326.661 186.873C330.973 180.382 337.452 167.881 333.162 163.313C329.621 159.545 318.101 167.478 310.634 171.843L308.498 180.019L308.114 173.395C284.587 188.59 291.722 178.33 291.722 178.33C291.722 178.33 309.184 119.312 293.803 123.104C287.731 124.6 281.724 129.392 276.204 136.395L276.933 141.857L274.433 138.726C270.462 144.138 266.699 150.522 263.217 157.283C267.19 143.559 269.734 130.302 268.661 120.92L263.939 121.12L267.986 117.194C266.782 112.562 264.333 109.312 260.246 108.054C253.978 106.123 248.616 111.485 244.055 121.14L246.819 128.722L242.384 124.948C226.688 163.375 221.216 252.525 221.216 252.525L220.428 257.441L283.912 250.194C283.912 250.194 375.64 238.661 369.243 222.425" fill="#2DDE9A"/>
<path d="M272.815 214.42L125.117 238.705C119.476 239.633 114.221 236.24 113.38 231.126L112.475 225.621C111.634 220.508 115.526 215.61 121.167 214.683L268.865 190.397C263.21 198.202 264.775 208.451 272.498 214.184L272.815 214.42Z" fill="#B9458E"/>
<path d="M267.246 193.491L192.921 205.712C190.463 206.116 188.267 207.479 186.814 209.501C185.362 211.523 184.772 214.038 185.176 216.494C185.58 218.95 186.944 221.144 188.967 222.594C190.99 224.045 193.508 224.633 195.966 224.229L270.298 212.007C268.138 209.498 266.711 206.443 266.173 203.177C265.635 199.911 266.006 196.56 267.247 193.491" fill="#FFD9A0"/>
<path d="M257.893 165.231C258.125 164.622 257.528 164.06 256.78 164.183L139.156 183.524C129.936 185.04 123.476 192.43 124.725 200.031C125.975 207.632 134.462 212.565 143.682 211.049L261.339 191.703C262.091 191.58 262.477 190.852 262.058 190.348C256.092 183.158 254.584 173.908 257.894 165.23" fill="#8E43E7"/>
<path d="M257.247 167.148L178.327 180.124C176.94 180.352 175.613 180.851 174.419 181.591C173.226 182.332 172.19 183.3 171.371 184.44C170.551 185.581 169.965 186.871 169.645 188.238C169.325 189.604 169.277 191.021 169.505 192.406L169.635 193.197C170.095 195.994 171.648 198.493 173.953 200.145C176.258 201.797 179.125 202.467 181.925 202.007L261.013 189.003C258.719 185.908 257.184 182.319 256.53 178.523C255.875 174.728 256.121 170.831 257.247 167.147" fill="#FFD9A0"/>
<path d="M114.343 186.347L190.253 173.866C196.984 172.759 201.474 165.983 200.282 158.731C199.089 151.479 192.666 146.497 185.934 147.603L110.024 160.085C117.023 166.41 119.006 177.052 114.762 185.512L114.343 186.347Z" fill="#FFD9A0"/>
<path d="M199.283 158.895C198.091 151.643 191.604 146.671 184.795 147.791L108.645 160.312C108.47 160.33 108.294 160.281 108.154 160.174C108.014 160.067 107.92 159.911 107.892 159.737C107.863 159.563 107.902 159.385 108 159.239C108.099 159.093 108.249 158.99 108.421 158.951L229.223 139.088C236.738 137.853 243.897 143.339 245.213 151.343C246.529 159.346 241.504 166.836 233.989 168.072L113.188 187.935C113.013 187.952 112.837 187.903 112.698 187.796C112.558 187.689 112.465 187.533 112.436 187.36C112.408 187.186 112.447 187.009 112.545 186.863C112.642 186.717 112.792 186.614 112.964 186.574L189.114 174.053C195.923 172.934 200.476 166.147 199.283 158.895Z" fill="#3369E7"/>
<path d="M209.327 186.353L201.203 187.689C199.456 187.976 198.129 188.751 198.239 189.418L198.257 189.526L209.543 187.67L209.327 186.353Z" fill="#FF4C16"/>
<path d="M216.752 188.246C216.477 186.571 214.132 185.563 211.514 185.993L201.09 187.707C203.075 187.381 204.853 188.145 205.062 189.416L210.357 221.923L215.43 216.797L221.988 220.011L216.752 188.246Z" fill="#F47458"/>
<path d="M333.529 204.386L114.065 240.472C110.792 241.01 107.867 242.825 105.933 245.517C103.999 248.21 103.215 251.559 103.752 254.829L105.457 265.198C105.995 268.468 107.81 271.39 110.505 273.322C113.199 275.253 116.551 276.036 119.824 275.498L339.288 239.412L339.154 239.312C333.865 235.358 330.322 229.504 329.272 222.988C328.223 216.471 329.749 209.801 333.529 204.386Z" fill="#FF6B5F"/>
<path d="M330.5 210.21L213.178 229.5C209.905 230.038 206.98 231.853 205.046 234.546C203.112 237.238 202.327 240.588 202.865 243.858C203.131 245.476 203.714 247.027 204.58 248.421C205.446 249.815 206.578 251.024 207.913 251.98C209.247 252.937 210.756 253.621 212.355 253.995C213.954 254.368 215.611 254.423 217.232 254.156L334.551 234.866C331.813 231.451 330.002 227.388 329.292 223.069C328.583 218.751 328.999 214.322 330.5 210.21Z" fill="#FFD9A0"/>
<path d="M274.932 232.073L265.417 233.638C264.434 233.799 263.556 234.344 262.975 235.153C262.395 235.961 262.159 236.967 262.321 237.949L262.375 238.28L275.594 236.106L274.932 232.073Z" fill="#13375B"/>
<path d="M265.808 233.588C268.082 233.214 271.794 234.578 274.1 236.635L301.264 260.886L314.519 258.698L288.684 235.635C285.644 232.921 280.749 231.122 277.751 231.617L265.808 233.588Z" fill="#355389"/>
<path d="M69.5787 280.607L74.026 278.768C76.4727 278.488 78.8794 277.929 81.199 277.103C81.199 277.103 81.7041 277.973 82.1708 279.866C82.2523 280.193 82.0467 281.917 81.7268 282.023C80.5668 282.401 78.4378 282.539 74.735 283.235C74.735 283.235 68.9972 284.888 65.6961 284.37C62.395 283.853 69.5787 280.607 69.5787 280.607Z" fill="#B75742"/>
<path d="M108.233 196.585C108.931 199.224 111.34 199.8 113.719 201.152C115.316 202.059 115.58 205.176 114.816 207.265C112.883 212.554 115.306 212.769 118.091 215.963C124.798 223.654 108.689 228.245 106.845 229.205C105.002 230.164 103.807 231.153 102.633 231.215C99.0955 231.402 95.1062 226.991 92.5922 222.718C90.0783 218.445 94.3207 217.5 94.1094 214.843C93.898 212.186 88.7933 212.447 89.4648 207.254C90.1916 201.634 91.7145 196.722 94.4597 194.599C99.003 191.086 105.527 192.906 107.261 194.843C107.72 195.338 108.053 195.935 108.233 196.585" fill="#184655"/>
<path d="M118.259 255.144C118.867 256.147 121.867 259.554 121.867 259.554L88.5764 265.368L86.9327 258.619C96.0754 257.04 104.46 251.509 112.42 247.227C112.719 247.708 117.964 254.658 118.26 255.143" fill="#FAE0B2"/>
<path d="M90.3113 232.817C90.3113 232.817 90.0242 219.896 92.6896 218.11C95.355 216.324 111.249 215.578 113.818 216.618C116.386 217.659 114.936 233.128 115.022 237.375C115.027 237.629 115.029 237.883 115.03 238.137C115.018 244.274 116.611 250.308 119.652 255.64C111.544 259.632 109.564 261.419 100.37 262.669L93.6708 243.258C93.6708 243.258 89.3648 234.04 90.3113 232.817Z" fill="#00AEFF"/>
<path d="M103.709 207.764C103.709 207.764 105.57 214.598 106.465 216.202C107.359 217.806 105.668 221.646 102.138 223.214C98.6077 224.782 100.524 219.675 100.141 217.887C99.7579 216.098 97.9977 207.625 97.9977 207.625L103.709 207.764Z" fill="#F7A491"/>
<path d="M103.924 208.549C103.53 209.179 103.038 209.741 102.466 210.216C101.208 211.265 99.9608 211.657 98.8179 211.584C98.3737 209.45 97.9946 207.625 97.9946 207.625L103.706 207.764C103.706 207.764 103.788 208.064 103.924 208.549Z" fill="#F47458"/>
<path d="M100.329 195.277C101.843 195.499 103.226 196.254 104.231 197.406C105.861 199.317 107.581 205.339 103.456 208.778C99.332 212.218 95.3212 208.61 94.7582 204.663C94.1952 200.715 94.3666 195.33 100.33 195.277" fill="#F7A491"/>
<path d="M93.1001 203.243C93.3183 204.256 93.9724 204.973 94.5608 204.845C95.1493 204.718 95.4509 203.792 95.2328 202.779C95.0146 201.765 94.3605 201.048 93.7721 201.176C93.1837 201.304 92.8822 202.229 93.1004 203.243" fill="#F7A491"/>
<path d="M105.006 202.892C104.812 203.961 105.239 204.935 105.961 205.068C106.682 205.2 107.424 204.44 107.619 203.37C107.813 202.301 107.386 201.327 106.664 201.195C105.943 201.063 105.201 201.823 105.006 202.892" fill="#F7A491"/>
<path d="M113.816 216.621C113.816 216.621 111.386 218.452 110.394 222.607C109.403 226.763 118.22 245.695 119.613 246.772C121.006 247.848 124.315 247.508 124.363 244.309C124.411 241.109 118.489 216.859 113.816 216.62" fill="#8FDCFF"/>
<path d="M97.477 216.578L106.586 243.335L89.2085 249.144L79.3113 224.341C79.3113 224.341 93.0197 215.987 97.477 216.578Z" fill="#9BC1F9"/>
<path d="M63.165 223.09C64.7594 222.139 66.5926 221.663 68.4485 221.718C71.8963 221.821 77.4284 222.3 79.9357 224.238C83.7199 227.162 90.4518 249.515 90.4518 249.515L76.066 248.689L63.165 223.09Z" fill="#9BC1F9"/>
<path d="M118.637 262.301C115.24 256.212 84.9261 236.992 78.2258 239.956L84.3476 253.71C84.3476 253.71 96.0498 275.815 104.243 277.567C112.436 279.319 119.084 274.728 119.084 274.728C119.084 274.728 122.035 268.392 118.638 262.301" fill="#F7CC7F"/>
<path d="M102.925 226.054C102.704 226.766 104.999 227.594 105.683 227.937C106.367 228.28 108.825 227.407 108.825 227.407C108.825 227.407 103.17 225.261 102.923 226.053" fill="#F7A491"/>
<path d="M85.404 260.568C85.404 260.568 80.9788 275.621 81.1954 277.077C81.5071 279.174 71.7312 280.192 73.687 278.951C74.1368 278.666 75.5325 277.645 75.6338 277.524C76.1705 276.884 78.8987 258.645 78.8987 258.645L85.404 260.568Z" fill="#F48C7F"/>
<path d="M84.8 243.529C84.4159 243.225 80.7894 242.434 78.705 246.127C76.6206 249.821 75.7703 276.043 75.7703 276.043L82.0475 275.632C82.0475 275.632 93.7277 250.616 84.8 243.529Z" fill="#003665"/>
<path d="M61.6858 227.772L73.4399 249.615C73.6634 250.04 74.0003 250.395 74.4134 250.641C74.8265 250.886 75.2997 251.013 75.7803 251.006C83.4043 250.834 87.3802 250.73 87.3802 250.73C87.3802 250.73 88.8467 250.566 90.3911 250.333L107.149 245.709C107.498 245.605 107.823 245.43 108.102 245.196C108.381 244.961 108.609 244.672 108.771 244.345C108.933 244.019 109.027 243.663 109.046 243.299C109.064 242.935 109.008 242.571 108.88 242.23L100.991 220.184C100.773 219.537 100.308 219.003 99.6976 218.697C99.0872 218.391 98.3805 218.338 97.7313 218.55L81.7747 224.004L77.4426 224.597L64.0576 223.832C62.034 223.716 60.6979 225.937 61.6858 227.772Z" fill="#F47458"/>
<path d="M98.2498 233.325C98.2498 233.325 102.966 233.42 104.523 233.116C105.735 232.933 106.964 232.885 108.187 232.972C108.187 232.972 115.27 244.135 116.223 245.354C119.069 248.992 125.059 247.523 124.41 244.205C123.895 241.57 110.799 226.663 108.058 227.199C105.317 227.735 96.3952 227.356 96.3169 228.493C96.2747 229.105 104.402 228.052 103.21 228.762C102.469 229.202 96.0261 229.532 96.1709 230.272C96.3156 231.012 102.019 230.147 102.728 230.623C103.436 231.1 96.5533 230.913 96.7991 232.169C96.9226 232.802 102.705 231.38 103.505 232.239C103.838 232.597 97.5607 232.153 98.2501 233.326" fill="#F7A491"/>
<path d="M67.0603 236.441C66.97 236.418 66.8756 236.415 66.784 236.432C66.6923 236.449 66.6055 236.487 66.5297 236.541C66.454 236.595 66.391 236.665 66.3453 236.747C66.2996 236.828 66.2723 236.918 66.2653 237.011C66.2391 237.416 66.2981 237.888 66.6376 238.151C67.3132 238.673 71.4145 238.605 71.3378 238.007C71.2791 237.547 68.3928 236.775 67.0601 236.442" fill="#F7A491"/>
<path d="M66.5362 238.123C66.5362 238.123 66.3808 239.689 66.7307 239.644C67.0805 239.599 71.4838 239.315 71.5916 238.769C71.6995 238.223 67.0443 237.728 66.5368 238.123" fill="#F7A491"/>
<path d="M66.604 239.702C66.604 239.702 66.5904 240.388 67.0124 240.714C67.4344 241.04 71.4275 240.125 71.4697 239.46C71.5119 238.796 66.6653 239.187 66.6043 239.701" fill="#F7A491"/>
<path d="M67.4512 241.008C67.4858 241.266 67.5961 241.508 67.7681 241.703C68.0073 241.887 70.9379 241.095 71.1295 240.411C71.3212 239.728 67.6895 240.293 67.4512 241.008Z" fill="#F7A491"/>
<path d="M83.3477 274.554C83.3477 274.554 82.7708 279.931 81.9007 283.568C81.3313 285.949 81.4559 288.208 81.0193 289.422C79.9158 292.489 77.3741 293.023 75.0635 291.669C72.7528 290.316 74.309 282.746 74.309 282.746L79.2441 272.669L83.3477 274.554Z" fill="#F7A491"/>
<path d="M81.0188 289.422C81.4065 288.344 81.3542 286.439 81.7363 284.359C80.848 285.089 79.2709 285.79 78.3369 285.697C74.9085 285.36 74.309 282.745 74.309 282.745C74.309 282.745 72.0859 290.607 74.3966 291.961C76.7072 293.314 79.9159 292.489 81.0193 289.421" fill="#F47458"/>
<path d="M81.7723 224.004L91.4959 250.315L88.3019 250.646L87.376 250.731L77.4404 224.599L81.7723 224.004Z" fill="#B75742"/>
<path d="M108.988 275.156C111.331 278.167 115.002 278.092 118.186 277.29C121.708 276.403 125.318 273.805 125.7 269.537C126.108 264.978 123.735 259.808 120.572 256.804C104.378 241.426 103.989 239.712 98.3103 238.25C92.1762 236.671 76.8987 276.412 76.8987 276.412L83.2207 278.432C83.2207 278.432 90.7677 269.688 95.3041 262.364C95.8377 261.503 97.0669 257.299 97.0669 257.299C97.0669 257.299 107.442 273.165 108.99 275.156" fill="#003665"/>
<path d="M91.8126 169.477C86.3282 171.251 85.772 178.878 90.9445 181.469C91.8709 181.943 92.596 182.734 92.9875 183.697L94.3564 186.999C94.5384 187.437 94.8792 187.792 95.3108 187.991C95.7425 188.19 96.2333 188.219 96.6857 188.073L98.7632 187.4C99.2156 187.254 99.5962 186.943 99.8293 186.529C100.062 186.115 100.131 185.628 100.021 185.166C99.1905 181.67 98.6314 180.44 99.5445 178.687C102.217 173.557 97.2967 167.702 91.8114 169.477" fill="#FEC168"/>
<path d="M95.7043 185.48L95.6986 185.481C95.6328 185.501 95.5637 185.508 95.4951 185.502C95.4265 185.496 95.3598 185.476 95.2988 185.444C95.2378 185.412 95.1838 185.369 95.1397 185.316C95.0956 185.263 95.0624 185.202 95.042 185.136L92.7615 177.822L90.7592 176.608C90.7003 176.572 90.649 176.525 90.6083 176.469C90.5676 176.414 90.5382 176.351 90.5218 176.284C90.5055 176.217 90.5024 176.148 90.5129 176.08C90.5234 176.012 90.5472 175.947 90.5829 175.888C90.6186 175.829 90.6656 175.778 90.7212 175.737C90.7767 175.696 90.8397 175.667 90.9066 175.651C90.9736 175.634 91.043 175.631 91.1111 175.642C91.1792 175.652 91.2445 175.676 91.3034 175.711L93.645 177.131L96.0424 184.825C96.0834 184.957 96.0709 185.099 96.0076 185.221C95.9444 185.344 95.8355 185.436 95.7045 185.479" fill="#FAE0B2"/>
<path d="M98.3012 184.975L98.3069 184.974C98.4388 184.93 98.5477 184.835 98.6096 184.711C98.6716 184.586 98.6815 184.442 98.6373 184.31L96.1944 177.048L97.1056 174.891C97.1597 174.763 97.1607 174.619 97.1084 174.49C97.0561 174.362 96.9547 174.259 96.8266 174.205C96.6984 174.151 96.554 174.15 96.4251 174.202C96.2962 174.254 96.1934 174.356 96.1392 174.484L95.0736 177.006L97.6412 184.644C97.6852 184.775 97.779 184.883 97.9023 184.946C98.0256 185.008 98.1685 185.019 98.2999 184.976" fill="#FAE0B2"/>
<path d="M92.9487 183.616C92.9604 183.642 92.975 183.669 92.9865 183.697L94.3557 186.998C94.5376 187.437 94.8783 187.791 95.3099 187.99C95.7415 188.189 96.2323 188.219 96.6847 188.072L98.7622 187.4C99.2145 187.254 99.5952 186.943 99.8283 186.529C100.061 186.115 100.13 185.629 100.02 185.166C99.6509 183.611 99.3354 182.505 99.179 181.601L92.9487 183.616Z" fill="#96D9C9"/>
<path d="M81.767 114.979L79.0093 112.126L75.093 112.779C74.9926 112.796 74.8895 112.784 74.7954 112.745C74.7012 112.706 74.6199 112.642 74.5604 112.56C74.501 112.477 74.4658 112.38 74.4589 112.278C74.4521 112.177 74.4737 112.075 74.5215 111.985L76.3862 108.483L74.5546 104.964C74.5077 104.873 74.487 104.772 74.4948 104.67C74.5026 104.569 74.5387 104.472 74.5989 104.39C74.6592 104.308 74.7412 104.244 74.8356 104.206C74.9301 104.168 75.0333 104.158 75.1336 104.175L79.0433 104.864L81.8282 102.036C81.8996 101.963 81.9899 101.912 82.0888 101.888C82.1878 101.864 82.2915 101.868 82.3882 101.9C82.4849 101.932 82.5707 101.99 82.636 102.068C82.7012 102.146 82.7433 102.241 82.7575 102.342L83.3095 106.27L86.8614 108.041C86.9524 108.087 87.029 108.157 87.0823 108.243C87.1357 108.33 87.1637 108.43 87.1632 108.532C87.1627 108.633 87.1338 108.733 87.0796 108.819C87.0254 108.905 86.9482 108.974 86.8567 109.019L83.2891 110.759L82.6979 114.682C82.6828 114.783 82.6398 114.877 82.5738 114.955C82.5078 115.032 82.4215 115.089 82.3245 115.12C82.2276 115.151 82.1239 115.155 82.0252 115.13C81.9265 115.105 81.8368 115.053 81.7661 114.98" fill="#FF6B5F"/>
<path d="M289.062 86.8884L287.036 84.7927L284.159 85.2718C284.086 85.2842 284.01 85.2756 283.941 85.2472C283.871 85.2188 283.812 85.1716 283.768 85.1109C283.724 85.0503 283.699 84.9786 283.694 84.9041C283.689 84.8295 283.705 84.7551 283.74 84.6891L285.109 82.116L283.765 79.5307C283.731 79.4644 283.716 79.3898 283.721 79.3153C283.727 79.2408 283.754 79.1694 283.798 79.1092C283.842 79.049 283.902 79.0023 283.972 78.9745C284.041 78.9467 284.117 78.9388 284.191 78.9518L287.063 79.4572L289.109 77.3796C289.161 77.3264 289.228 77.2889 289.3 77.2714C289.373 77.2539 289.449 77.257 289.52 77.2804C289.591 77.3038 289.654 77.3466 289.702 77.4039C289.75 77.4612 289.781 77.5308 289.791 77.6047L290.197 80.4904L292.805 81.7919C292.872 81.8254 292.928 81.8768 292.967 81.9405C293.006 82.0041 293.027 82.0774 293.026 82.1521C293.026 82.2268 293.005 82.2999 292.965 82.3631C292.925 82.4264 292.868 82.4773 292.801 82.5101L290.18 83.7879L289.746 86.6685C289.735 86.7424 289.704 86.8118 289.655 86.8687C289.607 86.9257 289.543 86.9679 289.472 86.9907C289.401 87.0135 289.325 87.0159 289.252 86.9976C289.18 86.9793 289.114 86.9411 289.062 86.8873" fill="#00AEFF"/>
<path d="M237.469 59.6692L233.75 59.6564L232.137 63.0856L227.969 62.7762L227.378 66.9578L222.65 66.8174L221.629 70.6012L217.058 71.2077L216.829 69.479L220.247 69.0252L221.323 65.0328L225.868 65.1694L226.469 60.9178L231.068 61.2593L232.644 57.9104L236.09 57.9223L236.665 55.5072L238.363 55.9097L237.469 59.6692Z" fill="#FF6B5F"/>
<path d="M136.585 87.7665L134.069 89.0147L131.613 85.1922L127.709 86.5638L125.402 84.0037L124.105 85.1706L127.189 88.5949L130.889 87.295L133.444 91.2714L137.23 89.3932L136.585 87.7665Z" fill="#2DDE9A"/>
<path d="M65.7302 144.191L62.1605 147.253L69.31 165.04C69.4274 165.337 69.6027 165.608 69.8256 165.837C70.0485 166.067 70.3148 166.249 70.6089 166.375C70.903 166.501 71.2192 166.567 71.5391 166.57C71.859 166.573 72.1764 166.512 72.4728 166.392C72.7692 166.271 73.0387 166.093 73.2659 165.868C73.4931 165.643 73.6733 165.375 73.7962 165.08C73.9191 164.785 73.9822 164.468 73.9818 164.149C73.9815 163.829 73.9177 163.513 73.7942 163.218L72.0773 159.048L75.8228 155.834L79.7367 158.145C80.1719 158.402 80.6768 158.516 81.1804 158.472C81.684 158.428 82.1612 158.227 82.5448 157.898L82.6127 157.84C82.9048 157.589 83.1329 157.272 83.278 156.916C83.4231 156.56 83.4811 156.174 83.4471 155.791C83.4132 155.408 83.2882 155.039 83.0827 154.713C82.8771 154.388 82.5969 154.117 82.2652 153.922L65.7302 144.191ZM70.243 154.874L68.9263 151.607L71.9635 153.398L70.243 154.874Z" fill="#FF6B5F"/>
<path d="M307.874 122.318C307.992 121.762 307.614 119.901 309.922 117.672C310.873 116.765 311.649 115.997 311.745 115.102C311.913 113.56 310.243 113.108 308.697 113.369C308.309 113.432 307.912 113.34 307.591 113.114C307.27 112.887 307.05 112.545 306.978 112.159C306.906 111.773 306.988 111.374 307.206 111.048C307.424 110.721 307.761 110.493 308.146 110.411C309.16 110.198 310.202 110.146 311.233 110.26C314.706 110.634 316.077 112.724 315.839 114.907C315.622 116.905 314.243 118.085 313.122 119.08C311.238 120.761 311.484 122.249 311.373 122.695L307.874 122.318ZM306.797 125.872C306.948 124.479 308.03 123.585 309.398 123.733C310.819 123.886 311.632 124.985 311.507 126.381C311.488 126.698 311.403 127.008 311.258 127.292C311.112 127.575 310.91 127.825 310.663 128.026C310.416 128.227 310.13 128.374 309.823 128.459C309.516 128.543 309.194 128.564 308.879 128.518C307.485 128.367 306.649 127.239 306.797 125.872Z" fill="#FEC168"/>
<path d="M181.123 44.5317C175.95 45.3823 174.412 52.1651 178.711 55.1988C179.48 55.7508 180.024 56.5605 180.245 57.4803L181.027 60.6356C181.131 61.0549 181.389 61.4197 181.75 61.6573C182.111 61.8948 182.549 61.9878 182.975 61.9177L184.935 61.5955C185.362 61.5254 185.746 61.2973 186.012 60.9566C186.278 60.6158 186.406 60.1876 186.37 59.7571C186.099 56.4997 185.763 55.318 186.823 53.865C189.924 49.615 186.297 43.681 181.123 44.5317Z" fill="#FEC168"/>
<path d="M182.448 59.4517L182.443 59.4525C182.318 59.4717 182.191 59.4404 182.089 59.3657C181.987 59.2909 181.918 59.1787 181.899 59.0538L180.845 52.1653L179.21 50.8018C179.162 50.7617 179.122 50.7125 179.093 50.6571C179.064 50.6017 179.046 50.5411 179.04 50.4787C179.035 50.4164 179.041 50.3536 179.06 50.2938C179.079 50.2341 179.109 50.1786 179.149 50.1305C179.189 50.0825 179.238 50.0428 179.294 50.0137C179.349 49.9847 179.41 49.9668 179.472 49.9612C179.535 49.9555 179.598 49.9622 179.658 49.9809C179.717 49.9995 179.773 50.0298 179.821 50.0699L181.733 51.6647L182.841 58.9092C182.86 59.0332 182.829 59.1598 182.756 59.2613C182.682 59.3629 182.571 59.4312 182.447 59.4516" fill="#FAE0B2"/>
<path d="M184.849 59.3518L184.854 59.3509C184.979 59.329 185.09 59.2585 185.162 59.155C185.235 59.0516 185.263 58.9235 185.242 58.7991L184.035 51.9361L185.147 50.1203C185.211 50.0126 185.229 49.8843 185.199 49.7632C185.168 49.642 185.092 49.5376 184.985 49.4724C184.878 49.4072 184.75 49.3864 184.629 49.4145C184.507 49.4426 184.401 49.5174 184.334 49.6227L183.032 51.7451L184.303 58.9629C184.324 59.0865 184.394 59.1965 184.497 59.2691C184.599 59.3416 184.726 59.3709 184.85 59.3505" fill="#FAE0B2"/>
<path d="M180.223 57.4026C180.23 57.4293 180.239 57.4555 180.246 57.4806L181.027 60.6357C181.131 61.0549 181.39 61.4197 181.751 61.6573C182.112 61.8949 182.549 61.9879 182.976 61.9178L184.935 61.5956C185.362 61.5254 185.746 61.2973 186.012 60.9566C186.278 60.6159 186.406 60.1877 186.37 59.7572C186.249 58.3081 186.117 57.2704 186.099 56.4361L180.223 57.4026Z" fill="#1EC5CA"/>
<path d="M189.639 34.1418L186.414 42.4513L193.069 35.5714L189.639 34.1418Z" fill="#FEC168"/>
<path d="M171.138 35.1799L176.988 42.2062L174.74 33.3999L171.138 35.1799Z" fill="#FEC168"/>
<path d="M165.022 47.6215L172.763 49.2833L165.413 50.9482L165.022 47.6215Z" fill="#FEC168"/>
<path d="M189.141 54.1699L192.664 57.3806L194.387 54.5043L189.141 54.1699Z" fill="#FEC168"/>
<path d="M190.937 46.8937L197.1 43.0881L197.773 45.9691L190.937 46.8937Z" fill="#FEC168"/>
<path d="M174.851 57.1187L169.109 61.0547L171.436 63.0642L174.851 57.1187Z" fill="#FEC168"/>
<path d="M107.508 108.583C109.178 108.521 110.851 108.595 112.509 108.804C114.85 109.075 116.258 109.467 117.407 110.34C117.987 110.719 118.449 111.253 118.742 111.882C119.034 112.51 119.144 113.208 119.06 113.895C118.885 115.405 117.84 116.711 115.844 117.194L115.838 117.245C117.716 117.997 118.98 119.621 118.727 121.81C118.649 122.505 118.411 123.173 118.033 123.761C117.655 124.349 117.146 124.843 116.546 125.203C115.199 126.041 113.071 126.356 109.698 125.966C108.307 125.818 106.929 125.574 105.573 125.234L107.508 108.583ZM110.556 115.512L111.814 115.657C113.829 115.89 115.007 115.186 115.153 113.928C115.302 112.645 114.399 111.853 112.663 111.652C112.117 111.579 111.566 111.549 111.015 111.563L110.556 115.512ZM109.682 123.032C110.17 123.136 110.664 123.211 111.161 123.254C112.898 123.455 114.51 122.979 114.717 121.193C114.916 119.483 113.46 118.626 111.546 118.405L110.237 118.253L109.682 123.032Z" fill="#8E43E6"/>
<path d="M265.587 89.7831C265.758 90.1998 265.758 90.6671 265.587 91.084C265.417 91.5009 265.088 91.834 264.674 92.011C263.684 92.4178 262.657 92.725 261.606 92.9279C255.255 94.1934 251.196 90.896 250.154 85.6672C248.906 79.4032 252.682 75.0267 258.243 73.9187C259.199 73.7234 260.173 73.626 261.149 73.628C261.381 73.6307 261.61 73.6802 261.822 73.7737C262.034 73.8672 262.225 74.0026 262.384 74.1718C262.542 74.341 262.664 74.5405 262.743 74.7583C262.823 74.9761 262.857 75.2076 262.844 75.4389L262.84 75.4998C262.818 75.9407 262.626 76.3559 262.304 76.6587C261.982 76.9615 261.556 77.1285 261.114 77.1249C260.444 77.1169 259.775 77.1796 259.117 77.3119C255.819 77.9691 253.653 80.4677 254.467 84.5528C255.2 88.2294 257.842 90.11 261.549 89.3713C262.174 89.2429 262.787 89.0611 263.381 88.8279C263.801 88.6662 264.267 88.6757 264.68 88.8542C265.093 89.0328 265.419 89.3662 265.588 89.7827" fill="#FEC168"/>
<path d="M72.5707 209.757C72.2554 209.146 72.193 208.435 72.397 207.778C72.601 207.121 73.0549 206.571 73.6612 206.245C74.9662 205.563 76.3355 206.032 77.0859 207.32C77.8117 208.62 77.4799 210.085 76.1276 210.838C74.7546 211.603 73.2849 211.103 72.5707 209.757ZM71.4616 205.829L65.4731 196.272C65.3555 196.085 65.2773 195.875 65.2433 195.657C65.2093 195.438 65.2201 195.215 65.2751 195.001C65.3302 194.786 65.4283 194.586 65.5634 194.41C65.6986 194.235 65.868 194.089 66.0614 193.982L67.0467 193.433C67.2397 193.325 67.4526 193.258 67.6725 193.235C67.8923 193.212 68.1146 193.234 68.3256 193.299C68.5367 193.365 68.7323 193.472 68.9005 193.615C69.0687 193.759 69.206 193.934 69.3042 194.132L74.3159 204.238L71.4616 205.829Z" fill="#3369E7"/>
<path d="M292.195 144.609L283.849 172.32C283.649 172.981 283.859 173.676 284.31 173.849L294.37 177.71L302.106 153.097C302.106 153.097 295.88 146.447 293.543 143.953C293.111 143.492 292.431 143.822 292.195 144.608" fill="#B75742"/>
<path d="M288.579 153.725C288.782 153.348 289.073 153.026 289.427 152.785C289.934 152.556 290.578 152.472 290.74 152.796C290.974 153.266 289.498 154.074 289.498 154.074L288.849 155.448C288.849 155.448 288.286 154.506 288.58 153.724" fill="#F48C7F"/>
<path d="M256.314 158.798C256.314 158.798 260.707 161.354 262 162.281C263.097 163.008 264.244 163.658 265.432 164.226L261.594 160.419L259.309 158.898L256.314 158.798Z" fill="#F7A491"/>
<path d="M317.118 201.848C316.392 201.7 316.351 205.124 316.535 205.929C316.733 206.794 317.06 207.393 317.176 207.448C317.492 207.597 328.539 205.945 330.552 205.035C330.716 204.941 330.867 204.825 331.001 204.691C332.325 203.09 323.816 201.026 322.423 201.562C321.184 202.039 320.384 202.513 317.118 201.848" fill="#466EB6"/>
<path d="M344.909 187.743C344.909 187.743 356.788 190.746 357.801 190.8C358.437 190.834 364.282 182.38 367.655 178.899C367.811 178.737 368.334 177.655 368.509 177.528C370.606 176.005 367.829 183.247 367.829 183.247C367.829 183.247 361.363 194.974 359.66 196.168C357.521 197.667 345.113 193.885 345.128 193.547L344.909 187.743Z" fill="#F48C7F"/>
<path d="M341.444 177.669C341.384 174.327 342.509 167.007 339.961 164.573C336.377 161.15 330.19 162.341 327.871 166.578C326.808 168.519 326.427 170.748 326.057 172.93C325.851 174.346 325.543 175.746 325.136 177.118C324.744 178.336 324.314 179.848 323.329 180.711C318.948 184.55 313.804 187.405 314.577 194.304C315.494 202.486 326.058 211.173 336.175 204.464C340.047 201.896 344.525 194.913 345.622 190.411C346.116 188.382 345.763 188.644 344.843 185.826C344.019 183.304 341.492 180.36 341.444 177.669" fill="#184655"/>
<path d="M336.3 183.497L352.481 189.215L349.855 195.098C349.855 195.098 337.982 192.681 335.623 192.444C333.263 192.206 333.692 183.697 336.3 183.497" fill="#355389"/>
<path d="M334.882 176.462C334.882 176.462 335.424 182.171 335.397 183.802C335.367 185.486 336.306 192.325 339.848 192.597C343.389 192.869 340.595 183.858 340.379 182.196C340.163 180.533 339.613 175.107 339.613 175.107L334.882 176.462Z" fill="#F7A491"/>
<path d="M334.947 177.146C335.28 177.499 335.651 177.813 336.054 178.083C337.502 179.059 338.856 179.23 340.008 178.883C339.806 176.994 339.615 175.107 339.615 175.107L334.884 176.461C334.884 176.461 334.909 176.721 334.947 177.146" fill="#F47458"/>
<path d="M336.624 165.078C335.261 165.419 334.065 166.235 333.25 167.379C331.936 169.273 330.918 174.922 335.01 177.679C339.103 180.436 342.134 176.99 342.284 173.338C342.435 169.687 342.085 164.576 336.624 165.078Z" fill="#F7A491"/>
<path d="M338.592 164.925C338.592 164.925 337.348 170.848 332.169 171.216C329.823 171.382 329.818 174.621 329.818 174.621C329.818 174.621 330.478 166.825 332.668 165.323C334.857 163.82 338.592 164.925 338.592 164.925Z" fill="#184655"/>
<path d="M333.048 172.455C333.324 173.412 333.024 174.34 332.375 174.527C331.727 174.714 330.978 174.089 330.702 173.132C330.425 172.175 330.726 171.247 331.374 171.06C332.022 170.873 332.771 171.498 333.047 172.454" fill="#F7A491"/>
<path d="M364.393 194.654L371.656 170.542C371.892 169.755 372.572 169.425 373.004 169.886C374.901 171.911 377.769 174.974 379.83 177.175L372.887 199.266L364.855 196.184C364.404 196.011 364.194 195.316 364.393 194.654" fill="#FAE0B2"/>
<path d="M367.855 205.105C367.855 205.105 347.856 221.161 347.167 225.661C346.479 230.162 348.592 236.331 352.015 237.099C355.438 237.867 371.956 214.005 371.956 214.005C371.956 214.005 375.461 219.28 379.738 222.566C382.018 224.318 385.574 225.468 387.695 226.677C389.552 227.736 390.132 228.969 390.132 228.969L394.776 228.472C394.776 228.472 393.947 228.278 392.183 226.239C386.225 219.35 372.397 203.332 367.855 205.105" fill="#F7A491"/>
<path d="M362.369 204.412C362.369 204.412 372.463 212.237 376.149 224.132C376.149 224.132 363.664 232.125 357.629 236.708C351.594 241.291 343.611 238.88 340.639 235.379C337.667 231.878 338.201 220.553 338.201 220.553L351.588 216.159L362.369 204.412Z" fill="#050E2C"/>
<path d="M387.071 228.228C386.345 228.08 386.674 231.573 386.688 232.361C386.68 232.638 386.733 232.912 386.844 233.165C386.956 233.418 387.122 233.642 387.331 233.823C387.647 233.972 398.692 232.379 400.705 231.469C400.869 231.375 401.02 231.259 401.154 231.125C402.477 229.523 394.737 227.125 393.345 227.662C392.107 228.139 390.337 228.893 387.071 228.228" fill="#355389"/>
<path d="M335.415 183.777C335.415 183.777 333.318 184.102 331.87 189.29C330.092 195.668 337.737 217.629 337.982 220.902C337.982 220.902 339.136 221.857 344.921 221.743C346.397 221.721 347.844 221.331 349.131 220.608C350.418 219.885 351.505 218.853 352.291 217.605C352.291 217.605 349.582 209.085 350.162 200.556C350.477 195.934 350.319 191.529 345.528 188.209C342.448 186.141 339.023 184.64 335.415 183.777" fill="#FF4E82"/>
<path d="M378.826 165.715L362.983 199.431C362.618 200.207 362.872 201.039 363.512 201.164L378.456 204.093L391.19 177.501L380.618 165.111C380.141 164.553 379.227 164.861 378.825 165.715" fill="#F47458"/>
<path d="M377.655 189.495C377.303 189.025 375.328 190.525 375.328 190.525C375.328 190.525 373.458 191.175 373.311 191.126C373.143 191.07 374.571 190.712 374.571 190.712C374.571 190.712 376.803 189.516 376.733 189.255C376.445 188.183 375.187 189.783 374.035 190.023C373.139 190.211 372.228 190.319 371.313 190.346C370.941 190.211 371.738 189.639 371.738 189.639C371.738 189.639 372.792 188.941 372.56 188.673C372 188.02 369.566 189.836 369.091 190.439C368.772 190.844 368.413 191.587 367.821 192.063C365.244 194.136 362.292 197.451 358.591 200.045C357.076 199.147 342.343 189.744 341.974 189.517L335.867 196.19C335.877 196.196 358.503 208.19 359.614 207.971C361.012 207.694 367.934 197.486 369.854 195.009C370.145 194.635 372.258 194.041 372.864 194.026C374.209 193.994 376.506 192.556 376.506 192.556C377.133 191.629 373.707 193.025 374.01 192.761C374.144 192.644 375 192.412 375.846 192.146C376.707 191.875 377.423 191.239 377.491 190.98C377.624 190.474 375.541 191.511 375.541 191.511L373.731 191.925L375.422 191.28C375.422 191.28 377.998 189.956 377.654 189.495" fill="#F7A491"/>
<path d="M339.423 186.341C336.774 184.396 332.47 185.45 331.742 188.967C331.539 189.946 331.989 192.583 332.552 193.488C334.803 197.107 345.25 201.906 345.25 201.906L349.274 193.997L339.423 186.341Z" fill="#FFA0BC"/>
</g>
</svg>
