<svg width="189" height="244" viewBox="0 0 189 244" fill="none" xmlns="http://www.w3.org/2000/svg">
<path d="M95.9608 0.850587C97.1156 0.965962 98.2415 0.533285 99.4251 0.64866C101.296 0.934057 103.064 1.68824 104.564 2.84081C107.134 5.15448 108.878 8.2435 109.529 11.6381C111.002 16.9742 111.291 22.4833 112.474 27.8771C113.398 31.8915 114.743 35.7974 116.487 39.53C117.357 41.3082 118.381 43.0069 119.547 44.6065C120.906 46.1355 122.16 47.7544 123.3 49.4522C123.762 50.404 123.993 50.779 122.896 51.3559C120.413 52.625 116.747 51.9039 114.062 51.9905C110.598 52.077 107.162 52.625 103.698 52.8269C101.205 52.9375 98.7294 53.295 96.3072 53.8942C94.9463 54.3341 93.5225 54.5485 92.0923 54.5287C92.1634 53.8764 92.3491 53.2417 92.6408 52.6539C93.0443 50.5685 93.3047 48.4579 93.4203 46.3371C93.911 41.2606 93.5358 36.1553 93.5358 31.0788C93.5358 25.137 93.1027 19.224 93.1027 13.2533C93.0731 10.2927 93.4519 7.34216 94.2286 4.48488C94.4596 3.64841 95.1525 1.31207 96.0763 1.1967C96.0763 1.34092 96.1629 1.36976 96.1917 1.51398L95.9608 0.879415V0.850587Z" fill="#301B11"/>
<path opacity="0.8" d="M104.186 44.6946C104.649 43.965 104.963 43.1515 105.11 42.3005C105.399 41.0891 105.745 39.82 105.918 38.5797C106.207 36.4164 106.149 34.2532 106.294 32.0899C106.485 32.353 106.604 32.6611 106.64 32.984C106.867 33.6737 107.05 34.377 107.189 35.0896C107.362 36.0991 107.651 37.1087 107.795 38.1182C107.823 38.879 107.94 39.6339 108.141 40.368C108.484 39.4439 108.67 38.469 108.69 37.4836C108.805 36.0991 108.979 34.7147 108.979 33.3013V26.8691C109.224 27.3964 109.504 27.907 109.816 28.3979C110.375 29.5056 110.876 30.6417 111.317 31.8014C112.097 33.907 112.356 36.0991 112.934 38.2336C113.829 41.4929 115.041 44.6369 116.254 47.8097C116.456 48.3 117.351 49.8288 116.889 50.2903C116.571 50.6075 115.619 50.4345 115.243 50.3768C114.32 50.1749 113.425 50.0595 112.501 49.7999C110.593 49.2858 108.76 48.5297 107.044 47.5501C106.265 47.1175 104.966 46.5117 104.677 45.6464C104.597 45.2583 104.382 44.9109 104.071 44.6657C104.157 44.6657 104.186 44.6369 104.273 44.6369H104.186V44.6946Z" fill="#632A06"/>
<path d="M95.4398 1.19916C94.2851 1.34338 93.1591 0.88186 91.9755 0.997235C90.1047 1.28263 88.3368 2.03682 86.8367 3.18938C84.2664 5.50305 82.5228 8.59212 81.8711 11.9867C80.3987 17.3228 80.1101 22.8319 78.9264 28.2257C77.9983 32.2389 76.6533 36.1444 74.9135 39.8786C74.0438 41.6568 73.0198 43.3554 71.8533 44.9551C70.4786 46.481 69.2239 48.1107 68.1003 49.8297C67.6095 50.7527 67.3785 51.1565 68.5044 51.7333C70.9872 53.0025 74.6536 52.2814 77.3385 52.3679C80.8029 52.4544 84.2384 53.0025 87.7027 53.2044C90.1944 53.3272 92.6689 53.6845 95.0933 54.2716C96.4525 54.7162 97.8788 54.9212 99.3084 54.8773C99.2335 54.2257 99.048 53.5917 98.7598 53.0025C98.3563 50.9171 98.0958 48.8066 97.9803 46.6857C97.4895 41.6092 97.8649 36.5038 97.8649 31.4274C97.8649 25.4567 98.2979 19.5438 98.2979 13.602C98.3275 10.6413 97.9486 7.69073 97.172 4.83345C96.941 4.02583 96.2482 1.68949 95.3243 1.54527C95.3243 1.68949 95.2377 1.74718 95.1799 1.86255L95.4109 1.22799L95.4398 1.19916Z" fill="#301B11"/>
<path opacity="0.8" d="M69.4273 50.2612C69.6901 49.8346 70.0106 49.4463 70.38 49.1075C71.1883 48.3287 71.9967 47.5788 72.7762 46.8C74.6021 45.0522 76.2287 43.1079 77.6263 41.0024C79.1001 38.7834 80.2929 36.3903 81.1773 33.878C81.5237 32.8397 82.0434 31.8013 82.3321 30.7629C82.4458 30.1598 82.5903 29.5629 82.7651 28.9746C82.7204 29.7147 82.6044 30.4488 82.4187 31.1667C82.2455 32.2339 82.0434 33.3012 81.8124 34.3395C81.3657 36.3848 80.8164 38.4064 80.1668 40.3967C81.2639 39.0948 82.177 37.6488 82.8806 36.099C83.7565 34.806 84.3108 33.3227 84.4973 31.7725C84.4312 33.4468 84.1892 35.1097 83.7755 36.7336C83.3033 38.315 83.0699 39.9579 83.0827 41.6081C83.5962 40.9755 84.0687 40.3108 84.4973 39.6179C84.5929 41.3226 85.1086 42.9773 85.9985 44.4348C86.4027 45.0694 86.9224 45.8193 86.6048 46.5692C85.8542 48.2133 84.1797 48.7614 82.6208 49.396C79.8953 50.607 76.9682 51.3014 73.9887 51.4438C72.4692 51.5406 70.9521 51.2215 69.6005 50.5209C69.5428 50.5209 69.4562 50.4343 69.3984 50.4055L69.4562 50.2901L69.4273 50.2612Z" fill="#632A06"/>
<path d="M108.199 89.2004H85.0459V45.2426L91.9457 42.9062H100.376L108.199 46.454V89.2004Z" fill="#D2B18D"/>
<path d="M104.764 49.5969H86.8359L87.8752 24.9355L101.819 25.2528L104.764 49.5969Z" fill="#D2B18D"/>
<path d="M106.527 67.0488H85.5679V92.3736H106.527V67.0488Z" fill="#425959"/>
<path d="M107.592 21.3014C107.592 28.3393 100.923 39.646 95.8134 39.646C90.2127 39.646 84.0057 28.3393 84.0057 21.3014C83.8656 19.6692 84.0664 18.0257 84.5955 16.4752C85.1245 14.9246 85.9701 13.5007 87.0789 12.2939C88.1877 11.087 89.5353 10.1235 91.0364 9.46436C92.5375 8.80522 94.1594 8.46484 95.799 8.46484C97.4387 8.46484 99.0604 8.80522 100.562 9.46436C102.063 10.1235 103.41 11.087 104.519 12.2939C105.628 13.5007 106.473 14.9246 107.002 16.4752C107.532 18.0257 107.732 19.6692 107.592 21.3014Z" fill="#E9CCAA"/>
<path d="M84.3798 26.5204C83.5137 25.6839 79.6452 18.5884 83.2539 19.8287C85.1304 20.4921 85.3902 26.2608 84.6685 27.155L84.3798 26.5204Z" fill="#E9CCAA"/>
<path d="M107.221 26.5204C108.087 25.6839 111.956 18.5884 108.347 19.8287C106.471 20.4921 106.211 26.2608 106.933 27.155L107.221 26.5204Z" fill="#E9CCAA"/>
<path d="M82.6494 19.4568C82.6494 13.7169 82.7649 8.49624 87.9903 5.17921C90.512 3.72025 93.4098 3.04023 96.3179 3.22504C99.226 3.40984 102.014 4.45118 104.331 6.21759C105.429 7.10106 106.335 8.19848 106.995 9.44309C107.655 10.6877 108.055 12.0535 108.17 13.4573C108.315 14.7265 109.238 19.6876 107.246 19.7452C106.207 16.8897 104.331 9.15963 99.4805 10.0826C97.4596 10.4576 96.709 14.7265 93.9086 13.4285C91.7434 12.4478 92.1476 8.52506 88.8565 10.8326C87.2202 12.1181 85.9631 13.8226 85.2189 15.7648C84.7281 17.034 84.6703 20.0626 83.8331 20.8702C83.4289 20.4087 83.198 19.6299 82.7938 19.3126L82.6494 19.4857V19.4568Z" fill="#301B11"/>
<path d="M130.658 63.0973C129.968 60.0495 128.683 57.1677 126.876 54.6173C125.678 52.8368 124.108 51.3372 122.274 50.2218C120.44 49.1063 118.385 48.4016 116.252 48.1562C112.14 47.2784 108.097 46.1023 104.156 44.6373L104.762 44.8392C103.982 47.6948 97.9485 84.2974 95.5523 87.6721C93.1561 84.2974 87.1513 48.3293 86.4007 45.5026L86.9492 44.5508C83.1535 46.0319 79.2555 47.2368 75.2859 48.1562C73.151 48.3956 71.0942 49.0977 69.2592 50.2137C67.4241 51.3297 65.8552 52.8325 64.6619 54.6173C62.1773 59.535 60.6491 64.879 60.1582 70.3659C61.0532 70.5966 71.8215 76.5385 72.2834 75.3559L76.8449 98.95L68.8479 130.793C71.7709 132.7 74.8751 134.313 78.1151 135.61C83.2828 134.572 96.0431 111.959 96.0431 111.959C96.0431 111.959 109.612 135.899 114.664 136.937C117.454 135.984 120.135 134.736 122.661 133.216L114.231 98.9212L119.254 75.327C119.456 75.8174 126.529 72.5868 130.398 70.9428C132.708 69.9332 132.072 71.8658 130.658 63.0973Z" fill="#FF6B5F"/>
<path opacity="0.4" d="M79.2742 47.1453L76.8491 63.2401L84.0087 65.2592V84.0942L95.5855 87.6708L86.174 81.5271L85.4234 64.4804L78.8411 62.0864L81.526 46.4531L79.2742 47.1453Z" fill="#618781"/>
<path opacity="0.4" d="M95.5811 87.6708L105.339 81.5271L106.09 64.4804L112.701 62.0864L110.016 46.4531L112.239 47.1453L114.664 63.2401L107.504 65.2592V84.0942L95.5811 87.6708Z" fill="#618781"/>
<path d="M88.2488 7.65777C87.0228 8.89856 86.0588 10.3728 85.4141 11.9931C84.7694 13.6133 84.4571 15.3465 84.4958 17.0896C84.4958 18.0126 84.2649 19.1664 84.8711 19.7721C85.5582 20.2378 86.3811 20.4611 87.2096 20.4067C90.6356 20.7193 94.0763 20.8445 97.5161 20.7816C98.0357 20.7528 98.9595 17.2627 98.9595 17.2627C99.5947 17.4069 100.749 20.522 101.615 20.4355C103.319 20.2624 104.993 20.0317 106.697 19.8298C106.885 17.5522 106.536 15.2623 105.679 13.1436C104.821 11.0248 103.479 9.13615 101.76 7.62889C99.7623 6.18041 97.3572 5.40039 94.8889 5.40039C92.4206 5.40039 90.0156 6.18041 88.0179 7.62889C87.6715 7.97502 87.2673 8.55192 86.7765 8.69614L88.2777 7.62889L88.2488 7.65777Z" fill="#301B11"/>
<path opacity="0.8" d="M93.9955 3.47656C92.8696 9.38952 93.2448 16.0236 97.4598 20.6097C95.0156 20.7186 92.5668 20.5639 90.1558 20.1483C88.9432 19.9752 87.7307 19.8887 86.5182 19.7733C86.2363 19.7874 85.954 19.7582 85.681 19.6868C85.4501 19.6002 84.9592 19.1387 84.8438 19.1099C84.2086 19.0234 84.0354 19.8021 83.689 20.3213C82.6786 19.1676 83.2271 15.9947 83.3426 14.5814C83.4214 12.5175 84.1038 10.522 85.3057 8.84149C86.3862 7.41108 87.6813 6.15602 89.1453 5.12067C89.8559 4.58168 90.6444 4.15374 91.4838 3.85154C92.2297 3.74012 92.9817 3.67272 93.7356 3.64966H93.9377C93.8974 3.62325 93.8589 3.59436 93.8223 3.56313H93.9955V3.47656Z" fill="#632A06"/>
<path d="M118.474 219.517L113.422 220.296C113.422 220.296 101.643 178.501 100.748 167.858C99.5289 158.349 97.7941 148.913 95.5515 139.591C95.5515 139.591 101.21 169.877 102.336 179.684C103.577 190.356 105.107 221.536 105.107 221.536L99.5644 222.402C99.5644 222.402 88.8538 192.837 86.1401 182.742C83.4552 172.762 77.8833 142.274 77.8833 142.274L121.65 133.967C121.65 133.967 116.915 166.964 118.474 176.944C120.784 191.77 118.474 219.517 118.474 219.517Z" fill="#D2B18D"/>
<path d="M180.578 100.709H21.9971V165.146H180.578V100.709Z" fill="#232733"/>
<path d="M188.889 99.2676H13.6787V109.767H188.889V99.2676Z" fill="#050E2B"/>
<path d="M38.0214 165.145H29.043V241.725H38.0214V165.145Z" fill="#3E3E3E"/>
<path d="M173.994 165.145H165.016V241.725H173.994V165.145Z" fill="#3E3E3E"/>
<path d="M188.889 109.795H13.6787V111.987H188.889V109.795Z" fill="#232633"/>
<path d="M180.578 165.146H21.9971L133.78 110.891H180.578V165.146Z" fill="#898989"/>
<path d="M60.1614 70.3633L54.9648 99.2647H95.0648L70.4967 89.1982L72.2866 75.3533L60.1614 70.3633Z" fill="#D2B18D"/>
<path d="M70.7245 89.4902C72.6876 91.9996 87.5266 94.3648 89.5763 94.7975C92.0014 95.2878 92.4922 94.6821 94.7151 93.788C98.9012 92.0573 102.308 90.4132 106.407 92.8938C109.142 94.6722 111.586 96.8612 113.654 99.3836C107.1 99.7586 99.8539 99.3548 93.3005 99.0663C88.7116 98.5344 84.2041 97.4497 79.8761 95.8358C76.5561 94.8552 70.3491 93.7014 70.0604 89.721C69.8317 89.7125 69.6071 89.7838 69.4253 89.9229L70.7533 89.4902H70.7245Z" fill="#D2B18D"/>
<path d="M181.468 99.3819C181.619 99.0463 181.698 98.6826 181.699 98.3147V59.4911C181.634 58.544 181.197 57.661 180.483 57.0344C179.77 56.4078 178.837 56.0882 177.889 56.1452H120.813C119.865 56.0882 118.932 56.4078 118.218 57.0344C117.505 57.661 117.068 58.544 117.002 59.4911V98.3147C117.004 98.6826 117.082 99.0463 117.233 99.3819H181.497H181.468Z" fill="#00AEFF"/>
<path d="M181.47 99.3819C181.621 99.0463 181.7 98.6826 181.701 98.3147V59.4911C181.636 58.544 181.199 57.661 180.485 57.0344C179.772 56.4078 178.839 56.0882 177.891 56.1452L166.285 56.9528C164.177 56.9528 116.976 90.1808 116.976 92.0267V98.3147C116.977 98.6826 117.055 99.0463 117.207 99.3819H181.47Z" fill="#027FB9"/>
<path d="M153.179 61.3955C153.175 61.5092 153.149 61.621 153.102 61.7246C153.055 61.8281 152.988 61.9214 152.905 61.9991C152.821 62.0768 152.724 62.1374 152.617 62.1773C152.511 62.2173 152.397 62.2359 152.284 62.232H146.077C145.963 62.2359 145.85 62.2173 145.743 62.1773C145.636 62.1374 145.539 62.0768 145.456 61.9991C145.373 61.9214 145.305 61.8281 145.258 61.7246C145.211 61.621 145.185 61.5092 145.182 61.3955C145.185 61.2819 145.211 61.1701 145.258 61.0665C145.305 60.963 145.373 60.8697 145.456 60.792C145.539 60.7143 145.636 60.6538 145.743 60.6138C145.85 60.5738 145.963 60.5552 146.077 60.5591H152.284C152.397 60.5552 152.511 60.5738 152.617 60.6138C152.724 60.6538 152.821 60.7143 152.905 60.792C152.988 60.8697 153.055 60.963 153.102 61.0665C153.149 61.1701 153.175 61.2819 153.179 61.3955Z" fill="#6790A0"/>
<path d="M53.9805 97.5355C53.9805 99.093 53.201 100.074 49.9964 100.074H9.55012C6.37446 100.074 5.5083 98.8911 5.5083 97.3336C5.5083 95.776 6.34559 94.4492 9.55012 94.4492H49.9964C53.201 94.4492 53.9805 95.776 53.9805 97.3336V97.5643V97.5355Z" fill="#B84592"/>
<path d="M48.9874 86.1991C48.4244 86.038 47.8408 85.9603 47.2553 85.9684H3.66209C2.69031 85.9227 1.72657 86.1635 0.890625 86.6606V93.8716C1.737 94.3375 2.69707 94.5574 3.66209 94.5061H47.2553C47.8374 94.5162 48.4187 94.458 48.9874 94.333V86.1991Z" fill="#C0763D"/>
<path opacity="0.4" d="M48.9874 86.2001C48.4244 86.039 47.8408 85.9612 47.2553 85.9693L30.1355 86.5174C28.923 86.5174 2.6516 92.6611 1.9876 93.0937L0.890625 93.8725C1.737 94.3385 2.69707 94.5583 3.66209 94.5071H47.2553C47.8374 94.5171 48.4187 94.459 48.9874 94.334V86.2001Z" fill="#FEC168"/>
<path d="M54.9633 84.0937C54.9633 85.2763 54.1838 86.0262 51.0082 86.0262H10.5618C7.35722 86.0262 6.52002 85.1321 6.52002 83.9206C6.52002 82.738 7.38609 81.7285 10.5618 81.7285H51.0082C54.2127 81.7285 54.9633 82.738 54.9633 83.9206V84.0937Z" fill="#1EC6CF"/>
<path d="M107.566 223.323C110.337 229.207 107.161 235.235 104.246 235.697C101.33 236.158 96.5373 231.37 97.0281 224.938C97.49 219.054 97.4323 213.026 100.348 212.564C103.264 212.103 104.852 217.612 107.566 223.323Z" fill="#D2B18D"/>
<path d="M97.2008 221.794C96.0519 225.142 95.8901 228.748 96.7347 232.185C97.5792 235.621 99.3944 238.743 101.964 241.177C103.148 242.216 105.371 244.408 107.132 243.398C108.662 242.504 109.095 239.678 109.615 238.178C110.639 235.502 110.936 232.603 110.474 229.776C110.013 226.949 108.81 224.294 106.988 222.083C109.095 225.198 109.672 231.428 106.497 234.024C102.657 237.168 98.9041 231.342 97.8648 228.313C97.4901 226.461 97.2967 224.578 97.2874 222.689C96.71 223.208 96.0749 224.448 96.3925 225.14L97.2297 221.766L97.2008 221.794Z" fill="#272627"/>
<path d="M97.3116 219.861C96.3332 222.132 95.8214 224.577 95.8065 227.049C95.7916 229.521 96.274 231.972 97.225 234.254C98.565 237.692 100.921 240.64 103.981 242.706C104.444 242.989 104.969 243.157 105.511 243.196C106.117 242.302 103.807 240.715 103.981 239.562C105.597 239.764 105.54 237.946 105.54 236.764C105.54 235.581 105.453 235.466 104.356 235.091C102.546 234.576 100.917 233.567 99.6501 232.178C97.6442 229.078 96.8052 225.367 97.2827 221.707C97.2827 221.39 97.3982 221.073 97.3982 220.727C97.1455 220.827 96.934 221.01 96.7978 221.246C96.6617 221.481 96.6088 221.755 96.6476 222.025L97.2827 219.89L97.3116 219.861Z" fill="#2E4D5B"/>
<path d="M111.724 223.582C111.147 230.014 116.199 234.687 119.086 234.196C121.973 233.706 124.889 227.678 122.204 221.736C119.75 216.342 117.7 210.631 114.813 211.121C111.926 211.612 112.302 217.323 111.724 223.582Z" fill="#D2B18D"/>
<path d="M120.99 218.823C123.211 221.573 124.596 224.902 124.98 228.414C125.364 231.927 124.73 235.475 123.155 238.639C122.405 239.995 121.048 242.764 119.027 242.36C117.266 242.014 115.88 239.475 114.928 238.235C113.042 236.072 111.765 233.447 111.228 230.63C110.69 227.812 110.911 224.903 111.867 222.198C110.972 225.803 112.531 231.861 116.429 233.303C121.134 235.033 122.693 228.342 122.636 225.14C122.358 223.275 121.903 221.44 121.279 219.66C122.001 219.977 123.04 220.929 122.953 221.679L120.99 218.766V218.823Z" fill="#272627"/>
<path d="M120.24 217.035C121.938 218.847 123.258 220.979 124.12 223.307C124.983 225.635 125.371 228.112 125.263 230.592C125.19 234.244 123.979 237.783 121.799 240.716C121.447 241.131 121.002 241.457 120.5 241.668C119.634 241.004 121.25 238.783 120.702 237.745C119.258 238.466 118.681 236.735 118.277 235.611C117.873 234.486 117.93 234.37 118.825 233.649C120.35 232.59 121.542 231.12 122.261 229.409C123.08 225.813 122.599 222.042 120.904 218.766C120.788 218.477 120.586 218.189 120.471 217.872C120.743 217.89 121.002 217.995 121.21 218.172C121.418 218.348 121.564 218.587 121.626 218.852L120.298 217.035H120.24Z" fill="#2E4D5B"/>
<path opacity="0.3" d="M118.563 214.035C120.027 217.235 120.243 220.866 119.17 224.217C118.882 224.883 118.413 225.456 117.816 225.869C117.219 226.282 116.517 226.519 115.792 226.553C114.543 226.528 113.317 226.212 112.212 225.63C111.259 227.274 112.645 230.332 113.482 231.861C114.691 233.848 116.628 235.286 118.881 235.87C124.308 236.649 124.308 228.457 123.846 225.169C123.594 223.109 122.936 221.119 121.912 219.314C121.221 217.909 120.336 216.608 119.285 215.448L118.534 214.035H118.563Z" fill="#D2B18D"/>
<path d="M82.0988 165.407C81.8101 159.724 82.3298 171.175 82.301 170.166C82.2143 180.203 82.4164 189.376 87.7862 198.375C89.8359 201.807 91.6836 205.384 93.4447 208.903C94.5417 211.095 97.5441 223.152 101.528 218.652C102.497 217.126 103.008 215.354 103.001 213.547C103.405 209.884 102.827 206.22 103.001 202.557C103.405 194.741 105.252 187.674 103.578 179.915C103 177.261 101.961 174.81 101.153 172.156C100.518 170.108 100.085 167.368 98.0926 166.07C95.9852 164.714 92.6652 165.435 90.269 165.32C87.6783 165.068 85.0712 165.029 82.4742 165.205L82.0411 165.407H82.0988Z" fill="#D2B18D"/>
<path d="M100.06 165.204C100.666 170.886 101.619 176.597 102.34 182.164C103.078 186.029 104.29 189.788 105.949 193.356C107.537 197.336 108.865 201.547 110.02 205.585C110.566 208.908 111.358 212.186 112.387 215.392C114.552 220.123 117.988 215.45 118.478 212.508C119.114 208.729 119.2 204.835 119.778 201.057C121.114 193.877 121.733 186.582 121.625 179.28C121.452 175.357 120.557 164.656 115.072 164.8C112.185 164.858 109.154 164.945 106.411 165.262C104.842 165.437 103.399 166.203 102.375 167.403C101.351 168.603 100.822 170.147 100.897 171.723L100.06 165.204Z" fill="#D2B18D"/>
<path opacity="0.3" d="M100.895 165.405C97.9505 175.328 103.407 185.452 105.976 194.768C107.939 201.922 111.375 209.248 111.692 216.603C111.923 222.228 110.884 230.246 117.264 233.275C115.813 228.888 115.148 224.279 115.301 219.66C114.713 213.679 113.778 207.737 112.501 201.864C110.942 192.086 110.336 182.193 109.469 172.386C109.325 170.655 109.354 165.954 108.113 165.405C107.16 164.973 104.995 165.636 103.869 165.607C102.627 165.607 101.473 165.232 100.318 165.232C100.318 165.29 100.462 165.232 100.289 165.261C100.116 166.646 99.2208 169.646 100.491 170.684L100.924 165.377L100.895 165.405Z" fill="#D2B18D"/>
<path opacity="0.3" d="M94.1401 165.203C95.605 170.271 96.6478 175.452 97.258 180.692C97.4312 184.096 97.8354 187.441 97.9509 190.845C98.0664 194.652 96.7961 200.94 92.6677 202.238C92.6966 202.181 92.3213 202.354 92.3213 202.354C94.1689 204.863 94.7752 210.314 95.8145 213.343C96.5068 214.965 97.0199 216.658 97.3446 218.391C97.5178 220.121 96.9693 221.91 97.0848 223.756C97.2291 226.813 97.8354 231.14 100.463 233.303C101.116 233.822 101.89 234.166 102.713 234.303C103.537 234.44 104.381 234.365 105.167 234.085C105.953 233.805 106.655 233.329 107.206 232.703C107.756 232.076 108.138 231.32 108.315 230.505C108.673 228.907 108.713 227.253 108.43 225.64C108.148 224.026 107.549 222.484 106.67 221.102C105.303 218.521 104.562 215.656 104.504 212.737C104.216 205.411 104.071 198.46 104.302 191.105C104.447 186.432 101.56 181.673 100.751 176.856C100.391 174.412 100.304 171.935 100.491 169.472C100.578 168.03 100.896 165.982 99.9717 164.972C98.062 165.007 96.1521 164.911 94.2556 164.684C94.3133 164.626 94.3711 164.684 94.2556 164.626C94.2556 164.626 94.3711 164.713 94.2556 164.568C94.1546 166.43 94.3297 168.296 94.7752 170.106L94.1401 165.203Z" fill="#D2B18D"/>
<path d="M183.578 161.715H17.5771V165.522H183.578V161.715Z" fill="#232633"/>
</svg>
