<svg width="314" height="245" viewBox="0 0 314 245" fill="none" xmlns="http://www.w3.org/2000/svg">
<path d="M205.655 214.8C205.631 214.661 205.212 209.887 204.932 208.35C204.546 206.055 203.464 203.934 201.833 202.273C200.46 198.39 198.849 194.595 197.008 190.91C195.462 194.933 194.162 199.047 193.116 203.228C192.956 204.107 192.972 205.009 193.163 205.882C193 206.068 192.417 204.881 192.347 205.23L193 204.951C192.65 205.83 192.43 206.756 192.347 207.698C192.661 208.674 193.1 209.605 193.652 210.469C193.652 210.632 194.142 212.518 194.142 212.588C194.555 214.783 195.481 216.85 196.845 218.619C196.902 218.708 196.964 218.794 197.032 218.875C198.026 220.317 199.442 221.415 201.087 222.018C204.909 222.81 205.981 216.896 205.608 214.823L205.655 214.8Z" fill="black"/>
<path d="M172.258 205.789C170.608 207.684 168.574 209.207 166.292 210.259C164.893 210.911 162.097 211.61 161.211 212.774C159.952 214.427 162.772 215.662 164.357 216.034C166.636 216.372 168.953 216.372 171.232 216.034C173.403 215.894 175.522 215.307 177.455 214.311C178.073 213.861 178.728 213.464 179.413 213.124C180.438 212.728 181.044 213.24 182.046 213.147C183.424 212.872 184.649 212.09 185.478 210.956C186.307 209.822 186.679 208.418 186.521 207.023C186.407 206.375 186.244 205.736 186.031 205.114C184.815 204.985 183.589 204.985 182.372 205.114C180.741 205.044 178.644 205.137 177.059 204.974C176.042 204.775 174.992 204.827 174.001 205.128C173.009 205.428 172.107 205.967 171.372 206.697L172.258 205.789Z" fill="black"/>
<path d="M204.956 206.023H190.367C190.367 206.023 188.129 184.601 188.432 178.338C188.689 173.215 188.782 162.784 188.782 162.784L186.032 142.41C186.032 142.41 185.333 154.774 184.82 162.295C184.564 165.974 187.36 182.436 187.127 189.189C187.057 191.075 186.032 206 186.032 206C189.598 205.581 171.839 205.767 171.839 205.767C171.839 205.767 169.741 186.161 170.067 181.388C170.417 176.382 170.464 164.74 170.464 164.74C170.464 164.74 165.43 138.125 165.43 131.117C166.077 124.085 167.128 117.095 168.576 110.184H203.301C203.301 110.184 206.867 127.554 206.657 133.398C206.448 139.033 203.581 163.925 203.581 163.925C203.581 163.925 205.422 182.226 205.445 187.675C205.445 190.655 204.979 206 204.979 206L204.956 206.023Z" fill="#050E2B"/>
<g opacity="0.4">
<path d="M186.454 206.463V206.649C187.129 206.579 187.036 206.509 186.454 206.463Z" fill="#26435D"/>
</g>
<path d="M200.481 107.738H179.553V110.975H200.481V107.738Z" fill="#9F491B"/>
<path d="M279.326 27.6158L244.298 1.60689L207.265 27.22L206.752 26.6146L244.298 0.628906L279.862 27.0337L279.326 27.6158Z" fill="white"/>
<path d="M279.601 27.3359H207.656V109.438H279.601V27.3359Z" fill="#FEC168"/>
<path d="M283.029 26.918H203.114V30.108H283.029V26.918Z" fill="white"/>
<path d="M236.278 42.6348H230.125V83.0802H236.278V42.6348Z" fill="#2DDE9A"/>
<path d="M243.62 54.2988H236.279V83.0787H243.62V54.2988Z" fill="#3369E7"/>
<path d="M252.872 43.2852H244.808V83.0786H252.872V43.2852Z" fill="#B84592"/>
<path d="M268.741 83.0801H223.435V84.1046H268.741V83.0801Z" fill="#C69440"/>
<path d="M203.998 95.793H171.766V98.657H203.998V95.793Z" fill="#2B4C4D"/>
<path d="M195.374 38.6992H181.32V54.5328H195.374V38.6992Z" fill="#D2B18D"/>
<path opacity="0.3" d="M190.483 44.5201C190.174 48.1972 188.423 51.6033 185.612 53.997C186.653 54.1569 187.707 54.2114 188.759 54.1599C189.807 54.2298 190.74 54.5558 191.765 54.6722C192.767 54.8153 193.787 54.7679 194.771 54.5325C195.797 54.0435 195.098 53.508 195.098 52.5067C195.028 49.2003 195.098 45.8007 194.911 42.5176C193.49 42.5176 189.737 43.286 190.203 44.9159L190.53 44.5434L190.483 44.5201Z" fill="#D2B18D"/>
<path d="M197.59 36.8144C197.59 41.2385 192.393 48.3171 188.361 48.3171C183.98 48.3171 179.132 41.2385 179.132 36.8144C179.449 34.5943 180.557 32.5628 182.252 31.0932C183.948 29.6235 186.117 28.8145 188.361 28.8145C190.606 28.8145 192.775 29.6235 194.471 31.0932C196.166 32.5628 197.274 34.5943 197.59 36.8144Z" fill="#E9CCAA"/>
<path d="M179.413 40.072C178.737 39.5598 175.707 35.0891 178.527 35.8808C179.996 36.2766 180.182 39.9091 179.646 40.4679L179.413 40.072Z" fill="#E9CCAA"/>
<path d="M197.285 40.072C197.961 39.5598 200.991 35.0891 198.171 35.8808C196.702 36.2766 196.516 39.9091 197.052 40.4679L197.285 40.072Z" fill="#E9CCAA"/>
<path d="M187.057 37.2341C187.049 37.7337 186.844 38.21 186.486 38.5589C186.128 38.9079 185.647 39.1012 185.146 39.0968H182.14C181.892 39.1008 181.645 39.0558 181.415 38.9642C181.184 38.8725 180.974 38.7362 180.796 38.563C180.619 38.3899 180.477 38.1833 180.38 37.9552C180.282 37.7271 180.231 37.482 180.229 37.2341C180.229 36.2096 180.066 36 181.115 36L186.405 36.6287C187.267 36.6287 187.057 38.0258 187.057 37.2341Z" fill="#14BAED"/>
<path d="M185.147 39.2828H182.141C181.862 39.2896 181.585 39.2413 181.325 39.1407C181.065 39.0401 180.828 38.8892 180.626 38.6966C180.425 38.504 180.264 38.2736 180.152 38.0186C180.04 37.7635 179.979 37.4889 179.974 37.2104V36.8378C179.974 36.4187 179.974 36.1393 180.183 35.9763C180.465 35.8128 180.793 35.7473 181.116 35.7901L186.453 36.4187C186.664 36.423 186.868 36.5027 187.026 36.6436C187.184 36.7846 187.287 36.9774 187.315 37.1872C187.385 37.4899 187.315 37.5597 187.268 37.583C187.193 37.993 186.989 38.3682 186.686 38.6541C186.269 39.0619 185.707 39.2881 185.124 39.2828H185.147ZM181.069 36.1859C180.888 36.1801 180.707 36.2037 180.533 36.2557C180.46 36.4406 180.436 36.641 180.463 36.8378V37.2104C180.462 37.429 180.503 37.6459 180.585 37.8485C180.668 38.051 180.789 38.2354 180.943 38.3911C181.097 38.5467 181.279 38.6707 181.481 38.7557C181.683 38.8408 181.899 38.8854 182.118 38.8869H185.124C185.345 38.8878 185.563 38.8451 185.767 38.7612C185.971 38.6773 186.157 38.5538 186.313 38.398C186.469 38.2421 186.592 38.0569 186.676 37.8531C186.76 37.6493 186.803 37.4308 186.802 37.2104C186.796 37.1074 186.752 37.0103 186.679 36.9373C186.606 36.8644 186.509 36.8207 186.406 36.8146L181.069 36.1859Z" fill="#1D3333"/>
<path d="M189.644 37.2341C189.652 37.7337 189.857 38.21 190.215 38.5589C190.573 38.9079 191.055 39.1012 191.555 39.0968H194.562C195.062 39.1012 195.543 38.9079 195.901 38.5589C196.259 38.21 196.465 37.7337 196.473 37.2341C196.473 36.2096 196.659 36 195.587 36L190.297 36.6287C189.434 36.6287 189.644 38.0258 189.644 37.2341Z" fill="#14BAED"/>
<path d="M190.017 38.6755C189.722 38.3835 189.519 38.0109 189.434 37.6045C189.388 37.5579 189.341 37.5113 189.411 37.2086C189.433 36.996 189.533 36.7992 189.693 36.657C189.852 36.5147 190.06 36.4374 190.273 36.4402L195.61 35.8116C195.933 35.7688 196.261 35.8343 196.543 35.9978C196.776 36.1841 196.752 36.4402 196.752 36.8593V37.2319C196.738 37.7931 196.502 38.3258 196.096 38.7139C195.69 39.1021 195.147 39.3143 194.585 39.3043H191.579C190.997 39.3008 190.439 39.0759 190.017 38.6755ZM190.297 36.8128C190.04 36.8128 189.947 37.0922 189.901 37.2086C189.901 37.4344 189.946 37.6579 190.034 37.8659C190.122 38.0738 190.251 38.2621 190.413 38.4194C190.567 38.5701 190.749 38.6888 190.949 38.7687C191.149 38.8486 191.363 38.8882 191.579 38.8851H194.585C194.804 38.8836 195.02 38.839 195.222 38.7539C195.423 38.6688 195.606 38.5449 195.76 38.3892C195.914 38.2336 196.035 38.0492 196.117 37.8466C196.2 37.6441 196.241 37.4272 196.24 37.2086V36.836C196.24 36.5333 196.24 36.3005 196.17 36.2539C195.997 36.1979 195.815 36.1742 195.634 36.1841L190.297 36.8128Z" fill="#1D3333"/>
<path d="M186.242 38.7465C186.775 38.3342 187.398 38.0548 188.06 37.9315C189.062 37.8849 189.412 38.4671 190.181 38.7931C189.598 37.9548 189.948 37.4658 188.526 37.4192C187.104 37.3726 186.941 37.8384 186.149 38.6301L186.242 38.7465Z" fill="#1D3333"/>
<path d="M181.301 50.7629C182.097 51.7556 183.133 52.529 184.312 53.0098C185.491 53.4906 186.773 53.6629 188.036 53.5105C190.74 53.5105 194.003 52.975 195.308 51.019C195.378 51.508 195.611 51.182 195.727 51.6244C195.844 52.1134 195.471 52.6024 195.191 53.1147C194.492 54.4652 193.816 55.8157 193.164 57.1662C191.617 60.0817 189.782 62.8352 187.687 65.3856C187.322 64.6918 187.04 63.9571 186.848 63.1969C186.421 62.3059 185.938 61.4427 185.403 60.6123C184.657 59.3084 183.748 58.0044 183.049 56.7471C182.466 55.7225 181.814 54.6281 181.324 53.5803C181.044 52.6281 180.911 51.6388 180.928 50.6465L181.278 50.7396L181.301 50.7629Z" fill="#9FA8B0"/>
<path d="M197.59 95.7938H181.159V50.3887C183.536 51.5261 186.144 52.0998 188.78 52.0652C191.069 51.9381 193.328 51.4914 195.492 50.7379L197.613 95.7938H197.59Z" fill="#EEF7FB"/>
<path d="M181.161 50.3887C180.415 51.2502 181.091 52.9733 181.557 53.9512C181.979 54.7899 182.47 55.5921 183.025 56.3495C183.421 56.8851 183.771 57.8863 184.424 58.2589C184.889 57.6881 185.295 57.0718 185.635 56.4194C186.125 55.7441 186.544 55.0223 186.964 54.3238C187.477 53.5088 188.292 52.5309 188.269 51.6228C187.649 52.7419 186.845 53.7494 185.892 54.6032C185.705 54.8128 185.053 55.6976 184.773 55.7674C184.447 55.8373 184.074 55.325 183.888 55.1155C183.182 54.3922 182.599 53.5585 182.163 52.6473C181.953 52.1583 181.907 50.7147 181.161 50.5517V50.412V50.3887Z" fill="#8CA1AA"/>
<path d="M195.144 50.8301C195.89 51.7149 195.214 53.4147 194.771 54.3926C194.374 55.2351 193.898 56.0381 193.35 56.7909C192.977 57.3265 192.627 58.3277 191.998 58.677C191.548 58.1051 191.158 57.4888 190.833 56.8376C190.367 56.1623 189.947 55.4404 189.551 54.7419C188.909 53.9624 188.476 53.0331 188.292 52.0409C188.894 53.1529 189.674 54.1596 190.6 55.0214C190.786 55.2309 191.415 56.1157 191.695 56.1856C191.975 56.2554 192.371 55.7431 192.534 55.5336C193.226 54.8089 193.793 53.9749 194.212 53.0654C194.422 52.5764 194.468 51.1328 195.168 50.9698V50.8301H195.144Z" fill="#8CA1AA"/>
<path d="M186.335 55.3027L188.246 52.0195L190.46 56.2806L187.71 58.0502L185.612 56.3738L186.335 55.3027Z" fill="#182A36"/>
<path d="M190.459 71.4134H186.288L187.243 56.4414H189.364L190.459 71.4134Z" fill="#182A36"/>
<path d="M206.607 81.0318C206.426 79.9079 206.64 78.756 207.213 77.772L207.283 70.9728C206.793 70.8797 207.003 72.0207 207.283 73.3945C207.817 71.2128 208.947 69.2219 210.546 67.6431C211.851 66.3625 213.808 65.3845 214.764 63.9176C215.151 63.3244 215.631 62.7977 216.186 62.3576C215.297 60.6088 214.115 59.0256 212.69 57.6773C210.552 55.2931 207.566 53.8389 204.37 53.6258C201.288 53.0626 198.245 52.3083 195.257 51.3672L195.374 51.5534C194.768 53.3464 190.41 68.9703 188.545 71.1125C186.681 68.9936 181.577 53.7655 180.994 51.9725L181.414 51.3672C178.419 52.311 175.368 53.0653 172.278 53.6258C169.081 53.8389 166.095 55.2931 163.958 57.6773C160.252 61.9384 158.994 77.283 159.273 79.1923C159.483 80.6127 167.943 78.9595 167.943 78.9595C168.369 76.1458 169.032 73.3728 169.924 70.6701L165.263 122.036C165.263 122.036 172.674 122.781 173.513 122.642C177.568 121.99 188.009 103.432 188.009 103.432C188.009 103.432 198.823 123.829 202.785 124.458C203.601 124.597 209.171 124.458 209.171 124.458L206.607 81.0085V81.0318Z" fill="#B84592"/>
<path opacity="0.4" d="M175.404 52.9953L173.516 63.0776L179.109 64.3582V76.1635L188.245 71.4135L180.811 74.5336L180.228 63.8692L175.054 62.379L177.152 52.5762L175.404 52.9953Z" fill="#1E1101"/>
<path opacity="0.4" d="M201.225 52.9953L203.112 63.0776L197.519 64.3582V76.1635L188.36 71.4135L195.818 74.5336L196.4 63.8692L201.574 62.379L199.477 52.5762L201.225 52.9953Z" fill="#1E1101"/>
<path opacity="0.4" d="M188.011 71.4121H187.778V103.405H188.011V71.4121Z" fill="#662E08"/>
<path d="M159.395 75.3495C159.349 75.8618 157.647 90.6941 157.647 90.6941L166.9 104.199L171.771 94.5593L165.455 87.3877L170.675 70.5762L159.395 75.3495Z" fill="#B84592"/>
<path opacity="0.4" d="M168.413 90.5994C169.34 91.8404 170.412 92.966 171.606 93.9523C172.566 95.1517 173.775 96.1289 175.149 96.8164C175.125 97.6313 173.867 98.3299 173.261 98.9353C172.476 99.7964 171.644 100.613 170.767 101.38C169.655 102.402 168.418 103.278 167.085 103.988C167.373 100.516 167.025 97.0206 166.06 93.6729C165.43 91.5954 165.023 89.4566 164.848 87.293C165.36 88.0614 167.784 90.972 168.646 91.0185L168.413 90.6227V90.5994Z" fill="#1E1101"/>
<path d="M164.638 102.383C166.875 102.57 169.299 100.567 170.884 99.4494C172.072 98.6112 174.076 97.3771 173.89 95.9102C174.852 96.1624 175.739 96.6415 176.477 97.3072C175.568 101.335 170.254 102.849 166.805 104.805C166.199 104.176 164.801 102.896 164.871 102.081L164.638 102.383Z" fill="#182A36"/>
<path d="M164.147 124.411L161.863 123.2L212.086 53.3923C212.086 53.3923 222.784 38.9093 223.39 39.8872C224.112 41.0515 214.37 54.6031 214.37 54.6031L164.147 124.411Z" fill="#9A703E"/>
<path d="M164.147 124.41L161.863 123.2L165.475 118.193L167.736 119.404L164.147 124.41Z" fill="#311E03"/>
<path d="M170.442 103.104C171.724 104.641 172.213 107.692 174.241 108.995C175.429 109.764 175.779 109.275 176.711 108.763C177.597 108.274 178.715 108.227 179.554 107.738C184.122 105.107 177.806 102.406 175.429 101.032C174.124 100.287 173.938 100.613 172.772 101.474C172.036 102.097 171.211 102.607 170.325 102.988C170.325 102.872 170.418 102.802 170.418 102.685V103.081L170.442 103.104Z" fill="#E9CCAA"/>
<path d="M215.957 61.8202C215.957 61.8202 225.163 88.1784 222.04 88.5044C217.612 88.9701 199.364 81.1697 199.364 81.1697L205.05 73.0667L210.597 76.9087L206.728 71.0642L215.981 61.7969L215.957 61.8202Z" fill="#B84592"/>
<path d="M200.878 77.8876C199.084 76.8165 195.518 76.4207 193.98 74.6976C193.071 73.6731 193.63 73.3937 194.236 72.5555C194.772 71.7871 194.842 70.8324 195.401 70.1105C198.431 66.1754 201.624 71.5542 203.255 73.5799C204.141 74.6976 203.745 74.8606 202.789 75.8852C202.093 76.4897 201.502 77.2058 201.041 78.0041C201.16 77.9811 201.277 77.9499 201.391 77.9109H200.901L200.878 77.8876Z" fill="#E9CCAA"/>
<path d="M205.165 72.8818C204.303 73.2776 203.557 74.6747 203.021 75.3732C202.407 76.2011 201.721 76.9726 200.97 77.6784C200.55 78.0975 199.338 78.9591 199.222 79.5179C199.105 80.0767 200.038 80.4726 200.55 80.7753C201.063 81.078 201.995 82.0792 202.671 82.1025C203.417 82.1025 203.79 81.2409 204.163 80.7985C205.095 79.6576 206.074 78.5865 207.053 77.4688C207.425 77.0497 207.752 76.6539 208.078 76.2114C208.567 75.5362 208.661 75.4664 207.985 74.9541C206.929 74.3265 205.951 73.5761 205.072 72.7188L205.165 72.8818Z" fill="#182A36"/>
<path d="M178.228 36.9283C177.762 35.5028 177.619 33.9917 177.808 32.5042C177.823 30.9644 178.123 29.4407 178.694 28.0103C179.314 26.4797 180.242 25.0927 181.421 23.9354C182.304 23.0562 183.299 22.2968 184.381 21.6768C185.434 20.9215 186.62 20.3688 187.876 20.0469C187.335 20.5268 186.953 21.1604 186.781 21.8631C187.711 21.3076 188.695 20.8473 189.717 20.4893C189.787 21.0248 188.809 21.5604 188.599 22.0726C189.601 22.3753 190.929 21.7932 191.978 21.8165C191.815 22.2124 191.116 22.4452 191.093 22.8644C192.165 23.1671 193.353 22.6548 194.355 23.2835C195.186 23.8318 195.926 24.5076 196.546 25.2859C197.934 26.6636 198.736 28.524 198.783 30.4784C198.861 32.0544 198.656 33.6316 198.177 35.1354C197.828 36.0202 197.338 36.8817 197.059 37.7665C196.984 37.3365 196.825 36.9251 196.593 36.5557C196.246 35.8048 195.857 35.0741 195.427 34.3669C194.93 33.216 194.172 32.1959 193.213 31.3865C192.303 30.6933 191.226 30.2517 190.09 30.1059C189.524 30.0632 188.958 30.1844 188.459 30.4551C187.853 30.7608 187.199 30.9579 186.525 31.0372C186.035 31.014 185.802 30.6647 185.383 30.5483C185.061 30.4769 184.728 30.471 184.403 30.531C184.079 30.591 183.77 30.7157 183.495 30.8975C182.608 31.4255 181.826 32.1122 181.188 32.9233C180.582 33.715 179.859 34.0177 179.463 34.856C179.183 35.4381 179.253 36.5324 178.974 37.1378C178.905 37.3052 178.828 37.4685 178.741 37.6268C178.391 37.4406 178.321 37.0913 178.088 36.8352L178.205 36.9981L178.228 36.9283Z" fill="black"/>
<path d="M178.132 35.2073C178.044 35.3966 178.004 35.6045 178.015 35.8127C178.854 35.8127 178.621 35.9058 178.528 36.5578C178.434 37.2098 179.017 37.1166 179.087 37.6522C179.157 38.1411 178.784 38.7466 178.854 39.2821C178.9 40.1073 179.22 40.8937 179.763 41.5174C179.81 41.3312 179.763 41.0983 179.926 40.9586C180.346 41.2148 180.485 41.9366 180.812 42.3324C181.145 42.7901 181.62 43.1255 182.163 43.2871C182.235 42.7793 182.2 42.262 182.059 41.7688C181.919 41.2755 181.676 40.8171 181.348 40.423C180.998 40.0738 180.509 39.9341 180.392 39.4684C180.346 39.2821 180.509 39.1424 180.439 38.9561C180.369 38.7698 180.019 38.6301 179.903 38.4438C179.531 37.6527 179.386 36.7743 179.483 35.9058C179.483 35.5333 179.716 35.021 179.25 34.7649C178.994 34.6252 178.458 34.6718 178.365 34.9279L178.132 35.184V35.2073Z" fill="black"/>
<path d="M196.657 34.2528C196.587 34.2123 196.505 34.196 196.424 34.2063C196.331 34.7884 196.984 35.3472 197.054 35.9293C197.115 36.199 197.115 36.4789 197.055 36.7487C196.994 37.0186 196.875 37.2716 196.704 37.4894C197.963 37.2798 195.772 39.0961 195.842 39.3755C195.982 39.3755 196.121 39.4453 196.285 39.4453C196.378 39.7946 195.935 39.8877 195.749 40.1439C195.587 40.4331 195.455 40.7372 195.352 41.052C195.073 41.6108 194.537 42.0765 194.28 42.612C196.96 42.775 197.823 38.8399 198.056 37.1169C198.184 36.1442 198.207 35.1606 198.126 34.183C198.079 33.7639 197.986 33.0886 197.357 33.1119C196.844 33.1119 196.028 34.1364 196.704 34.2761L196.657 34.2295V34.2528Z" fill="black"/>
<path d="M173.331 211.774C172.142 211.472 174.426 212.287 173.331 211.774L166.455 208.468C165.244 207.886 163.985 207.397 162.773 206.838C161.118 206.093 157.39 205.464 156.248 203.974C155.315 202.763 158.462 199.783 159.277 198.409C159.907 197.361 160.279 196.15 161.002 195.172C161.678 194.241 161.631 194.218 162.447 194.567C161.188 193.915 163.612 195.079 162.447 194.567C163.589 195.149 168.18 198.316 169.299 198.875C170.551 199.434 171.67 200.252 172.582 201.276C173.494 202.299 174.178 203.505 174.589 204.812C175.242 206.815 175.871 210.61 173.634 211.914L173.354 211.774H173.331Z" fill="#8A4A2A"/>
<path d="M119.822 211.774C118.726 212.287 121.01 211.472 119.822 211.774L126.697 208.468C127.909 207.886 129.167 207.397 130.379 206.838C132.034 206.093 135.763 205.464 136.905 203.974C137.837 202.763 134.691 199.783 133.875 198.409C133.246 197.361 132.873 196.15 132.15 195.172C131.474 194.241 131.521 194.218 130.705 194.567C129.54 195.079 131.964 193.915 130.705 194.567C129.563 195.149 124.972 198.316 123.853 198.875C122.599 199.43 121.478 200.247 120.565 201.272C119.653 202.296 118.97 203.503 118.563 204.812C117.911 206.815 117.281 210.61 119.519 211.914L119.798 211.774H119.822Z" fill="#8A4A2A"/>
<path d="M164.848 211.889H128.398V215.312H164.848V211.889Z" fill="#182A36"/>
<path d="M155.081 143.551H139.21V162.504H155.081V143.551Z" fill="#D2B18D"/>
<path d="M157.595 141.292C157.595 146.578 151.698 155.053 147.154 155.053C142.19 155.053 136.713 146.578 136.713 141.292C136.959 138.696 138.165 136.284 140.096 134.529C142.027 132.773 144.543 131.801 147.154 131.801C149.764 131.801 152.281 132.773 154.212 134.529C156.143 136.284 157.349 138.696 157.595 141.292Z" fill="#D2B18D"/>
<path d="M137.043 145.228C136.274 144.599 132.872 139.267 136.065 140.222C137.719 140.71 137.952 145.041 137.323 145.717L137.067 145.228H137.043Z" fill="#E9CCAA"/>
<path d="M157.249 145.228C158.018 144.599 161.444 139.267 158.252 140.222C156.597 140.71 156.364 145.041 156.993 145.717L157.249 145.228Z" fill="#E9CCAA"/>
<path d="M135.505 139.916C135.505 135.609 135.621 131.697 140.236 129.205C142.517 128.103 145.041 127.596 147.571 127.73C150.102 127.864 152.557 128.636 154.709 129.974C155.641 130.57 156.428 131.366 157.012 132.305C157.597 133.243 157.964 134.3 158.088 135.399C158.205 136.354 159.044 140.056 157.272 140.103C156.34 137.96 154.685 132.139 150.397 132.838C148.603 133.14 147.95 136.307 145.456 135.353C143.545 134.607 143.895 131.673 141.005 133.397C139.608 134.306 138.493 135.589 137.789 137.099C137.346 138.054 137.299 140.312 136.577 140.918C136.227 140.568 136.018 139.986 135.645 139.753L135.505 139.87V139.916Z" fill="#9FA8B0"/>
<path d="M146.877 127.763C147.07 128.645 147.048 129.56 146.813 130.431C146.578 131.302 146.136 132.104 145.525 132.769C145.246 133.095 144.337 133.561 144.244 133.91C144.127 134.329 144.873 134.981 145.246 135.144C145.788 135.348 146.381 135.37 146.936 135.206C147.492 135.042 147.978 134.701 148.322 134.236C148.654 133.798 149.09 133.45 149.59 133.222C150.091 132.995 150.64 132.895 151.189 132.932C153.31 132.932 154.661 134.818 155.593 136.239C156.462 137.56 157.108 139.016 157.505 140.546C157.947 140.546 158.227 140.127 158.693 140.081C158.856 137.614 158.507 135.141 157.668 132.816C157.11 131.755 156.331 130.826 155.384 130.091C154.405 129.178 153.21 128.529 151.911 128.205C150.29 127.598 148.533 127.445 146.831 127.763H146.877Z" fill="#8194A0"/>
<path d="M139.185 157.988C140.052 159.153 141.21 160.072 142.543 160.652C143.876 161.232 145.338 161.453 146.783 161.294C149.836 161.294 153.518 160.665 155.009 158.314C155.079 158.896 155.359 158.5 155.476 159.035C155.615 159.618 155.196 160.2 154.87 160.828C154.077 162.435 153.308 164.042 152.586 165.695C150.858 169.167 148.79 172.459 146.41 175.521C146.001 174.679 145.681 173.797 145.454 172.89C144.975 171.825 144.43 170.79 143.823 169.793C142.984 168.233 141.958 166.696 141.143 165.159C140.49 163.925 139.744 162.621 139.185 161.387C138.852 160.254 138.71 159.074 138.765 157.895L139.162 158.011L139.185 157.988Z" fill="#9FA8B0"/>
<path d="M157.597 211.889H139.022V157.543C141.688 158.908 144.65 159.596 147.646 159.545C150.234 159.391 152.786 158.858 155.22 157.962L157.62 211.889H157.597Z" fill="#9FA8B0"/>
<path d="M174.656 166.275C173.498 164.877 172.069 163.728 170.455 162.895C168.841 162.063 167.075 161.565 165.264 161.432C161.769 160.747 158.321 159.845 154.939 158.731L155.079 158.94C155.499 153.026 139.674 158.591 138.998 156.472L139.301 158.731C135.931 159.858 132.49 160.761 129 161.432C127.191 161.576 125.429 162.078 123.816 162.909C122.204 163.741 120.773 164.885 119.608 166.275C115.436 171.375 113.549 204.672 113.106 206.93C112.407 210.632 119.561 215.313 123.22 208.7C123.99 207.326 125.295 184.088 126.367 181.829L128.418 222.927H165.287L167.921 181.829C168.993 184.088 170.181 206.744 170.298 208.327C170.577 212.705 178.478 213.59 179.806 207.652C180.342 205.23 178.874 171.375 174.679 166.275H174.656Z" fill="#C0763D"/>
<path d="M157.598 156.473C157.575 156.865 157.397 157.231 157.105 157.493C156.813 157.754 156.429 157.89 156.037 157.87H139.21C138.818 157.89 138.434 157.754 138.142 157.493C137.849 157.231 137.672 156.865 137.648 156.473C137.672 156.082 137.849 155.715 138.142 155.454C138.434 155.192 138.818 155.056 139.21 155.076H156.037C156.429 155.056 156.813 155.192 157.105 155.454C157.397 155.715 157.575 156.082 157.598 156.473Z" fill="#C0763D"/>
<path d="M155.523 156.473H138.79V164.063H155.523V156.473Z" fill="#C0763D"/>
<path d="M144.826 124.455C144.05 124.611 143.263 124.712 142.472 124.758C141.514 124.952 140.594 125.298 139.746 125.782C138.237 126.69 137.017 128.006 136.226 129.578C134.851 132.395 133.779 137.052 135.76 139.87C136.273 139.753 136.809 139.427 137.345 139.334C137.578 141.104 136.856 142.734 137.252 144.573C137.896 146.145 138.874 147.559 140.118 148.718C141.258 149.827 142.661 150.629 144.197 151.046C145.462 151.63 146.501 152.611 147.157 153.84C148.252 151.186 151.981 151.163 154.009 149.277C156.502 146.995 156.246 144.41 157.784 141.802C157.924 141.849 158.157 141.849 158.297 141.895C159.565 139.691 160.172 137.169 160.045 134.63C160.237 132.34 159.835 130.039 158.879 127.948C157.47 126.139 155.432 124.926 153.17 124.548C151.134 124.362 149.081 124.495 147.087 124.944C146.015 125.107 145.362 124.502 144.313 124.572L144.803 124.455H144.826Z" fill="#662B07"/>
<path d="M146.574 125.482C145.596 123.969 142.706 124.528 141.307 125.156C139.133 126.15 137.382 127.883 136.367 130.046C134.828 133.12 133.71 138.685 136.343 141.502C136.53 141.246 136.903 141.013 137.089 140.734C137.159 142.108 136.46 143.272 136.809 144.739C137.336 146.428 138.291 147.952 139.583 149.163C140.896 150.042 142.323 150.739 143.824 151.235C145.082 151.982 146.247 152.873 147.297 153.89C147.394 152.741 147.363 151.585 147.204 150.443C147.064 149.605 146.528 149.512 146.202 148.883C145.805 148.115 146.435 147.742 146.458 146.881C146.481 145.204 144.547 146.369 145.083 144.203C145.461 143.316 145.495 142.319 145.176 141.409C144.826 140.547 144.034 139.802 143.987 138.848C144.267 138.894 144.663 138.755 144.943 138.824C145.223 136.938 142.24 135.099 142.846 133.236C143.288 131.862 144.966 133.329 146.085 133.353C146.108 132.887 146.085 132.398 146.108 131.909C146.901 132.165 146.901 133.329 147.716 133.679C148.321 131.919 148.45 130.032 148.089 128.207C148.013 127.581 147.778 126.986 147.407 126.477C147.035 125.967 146.541 125.561 145.968 125.296L146.598 125.529L146.574 125.482Z" fill="#522204"/>
<path d="M148.069 128.042C148.628 127.996 149.747 126.971 150.539 126.692C151.166 126.445 151.836 126.328 152.509 126.348C153.182 126.368 153.844 126.524 154.454 126.808C158.603 129.02 155.783 133.211 153.942 135.843C154.733 135.112 155.648 134.528 156.645 134.12C156.785 135.493 155.41 136.797 155.177 138.101C155.853 138.008 156.435 137.566 157.135 137.566C157.321 139.196 155.62 140.593 154.641 141.803C155.783 142.455 154.618 144.924 154.198 145.832C153.523 147.031 152.572 148.052 151.425 148.812C149.793 150.046 146.997 151.094 147.206 153.399C148.344 152.316 149.641 151.413 151.052 150.721C152.413 150.303 153.621 149.493 154.524 148.393C155.703 146.162 156.723 143.851 157.577 141.477C157.624 141.594 157.974 141.966 158.044 142.153C159.438 140.14 160.141 137.73 160.048 135.284C160.328 133.017 159.888 130.72 158.789 128.718C157.619 126.971 155.932 125.633 153.965 124.89C151.997 124.147 149.846 124.036 147.812 124.573C147.323 124.666 145.855 124.829 145.692 125.365C145.482 125.993 147.556 127.763 148.185 128.042C148.255 127.833 148.162 127.693 148.069 127.483V128.042Z" fill="#522204"/>
<path d="M170.506 243.954C170.739 242.557 170.506 225.047 170.506 223.556V205.255C170.506 192.495 161.254 182.156 149.811 182.156H143.075C131.656 182.156 122.38 192.495 122.38 205.255V223.556C122.38 225.047 122.147 242.557 122.38 243.954H170.483H170.506Z" fill="#CAE5E5"/>
<path d="M270.907 213.195C269.788 212.916 271.956 213.684 270.907 213.195C269.742 212.66 265.5 210.587 264.335 210.052C263.17 209.516 261.981 209.027 260.816 208.492C259.231 207.77 255.665 207.188 254.57 205.767C253.684 204.603 256.667 201.762 257.46 200.458C258.042 199.457 258.415 198.316 259.091 197.362C259.744 196.477 259.697 196.453 260.466 196.779C259.254 196.151 261.585 197.268 260.466 196.779C261.538 197.338 265.92 200.365 266.992 200.878C268.188 201.408 269.258 202.187 270.13 203.163C271.002 204.138 271.656 205.288 272.049 206.536C272.678 208.445 273.261 212.054 271.14 213.312L270.86 213.172L270.907 213.195Z" fill="#26435D"/>
<path d="M219.824 213.195C218.775 213.684 220.966 212.916 219.824 213.195C220.989 212.66 225.23 210.587 226.396 210.052C227.561 209.516 228.75 209.027 229.915 208.492C231.5 207.77 235.065 207.188 236.161 205.767C237.046 204.603 234.063 201.762 233.271 200.458C232.688 199.457 232.315 198.316 231.64 197.362C230.987 196.477 231.034 196.453 230.264 196.779C229.146 197.268 231.476 196.151 230.264 196.779C229.192 197.338 224.811 200.365 223.739 200.878C222.542 201.408 221.473 202.187 220.601 203.163C219.729 204.138 219.075 205.288 218.682 206.536C218.052 208.445 217.47 212.054 219.591 213.312L219.847 213.172L219.824 213.195Z" fill="#26435D"/>
<path d="M262.822 213.287H228.027V216.547H262.822V213.287Z" fill="#26435D"/>
<path d="M253.477 148.066H238.328V166.159H253.477V148.066Z" fill="#26435D"/>
<path d="M255.878 145.901C255.878 150.954 250.262 159.033 245.927 159.033C241.196 159.033 235.952 150.93 235.952 145.901C236.168 143.41 237.311 141.09 239.156 139.399C241 137.709 243.412 136.771 245.915 136.771C248.418 136.771 250.83 137.709 252.675 139.399C254.519 141.09 255.662 143.41 255.878 145.901Z" fill="#26435D"/>
<path d="M236.255 149.651C235.509 149.069 232.269 143.969 235.299 144.878C236.884 145.343 237.094 149.488 236.488 150.117L236.231 149.651H236.255Z" fill="#26435D"/>
<path d="M255.553 149.651C256.299 149.069 259.538 143.969 256.509 144.878C254.924 145.343 254.714 149.488 255.32 150.117L255.577 149.651H255.553Z" fill="#26435D"/>
<path d="M234.811 144.597C234.811 140.499 234.928 136.751 239.332 134.376C241.512 133.327 243.922 132.846 246.338 132.976C248.754 133.106 251.098 133.844 253.153 135.121C254.044 135.692 254.797 136.455 255.357 137.353C255.917 138.251 256.271 139.262 256.392 140.313C256.509 141.221 257.301 144.761 255.623 144.807C254.737 142.758 253.153 137.216 249.074 137.892C247.373 138.171 246.72 141.221 244.366 140.29C242.525 139.591 242.875 136.774 240.101 138.427C238.768 139.3 237.703 140.525 237.025 141.966C236.606 142.874 236.559 145.04 235.86 145.622C235.51 145.296 235.324 144.737 234.974 144.504L234.834 144.621L234.811 144.597Z" fill="#26435D"/>
<path d="M245.673 132.978C245.858 133.818 245.839 134.69 245.616 135.521C245.393 136.352 244.972 137.117 244.391 137.751C244.134 138.054 243.249 138.496 243.179 138.846C243.086 139.241 243.785 139.87 244.134 140.033C244.652 140.224 245.216 140.243 245.745 140.088C246.274 139.933 246.739 139.612 247.071 139.172C247.392 138.754 247.811 138.422 248.29 138.203C248.769 137.984 249.295 137.885 249.821 137.914C251.849 137.914 253.13 139.707 254.016 141.058C254.84 142.325 255.454 143.716 255.834 145.179C256.253 145.179 256.51 144.76 256.976 144.737C257.126 142.383 256.801 140.023 256.02 137.798C255.487 136.787 254.749 135.899 253.853 135.19C252.919 134.318 251.781 133.693 250.543 133.374C248.996 132.797 247.32 132.652 245.696 132.954L245.673 132.978Z" fill="#26435D"/>
<path d="M238.304 161.853C239.132 162.963 240.237 163.838 241.509 164.39C242.78 164.941 244.174 165.15 245.552 164.996C248.465 164.996 251.984 164.391 253.406 162.155C253.476 162.714 253.732 162.342 253.849 162.854C253.989 163.413 253.569 163.972 253.266 164.554C252.497 166.091 251.775 167.627 251.099 169.211C249.437 172.519 247.462 175.661 245.202 178.594C244.809 177.791 244.505 176.948 244.293 176.08C243.838 175.061 243.316 174.073 242.732 173.122C241.916 171.632 240.961 170.142 240.192 168.698C239.562 167.534 238.84 166.277 238.327 165.089C238.017 163.999 237.876 162.869 237.908 161.736L238.281 161.853H238.304Z" fill="#26435D"/>
<path d="M255.88 213.286H238.145V161.408C240.688 162.713 243.512 163.376 246.371 163.341C248.841 163.195 251.276 162.685 253.596 161.827L255.88 213.31V213.286Z" fill="#26435D"/>
<path d="M272.171 169.769C271.064 168.434 269.699 167.336 268.157 166.54C266.615 165.744 264.929 165.266 263.199 165.135C259.86 164.489 256.567 163.626 253.34 162.551L253.48 162.76C253.876 157.126 238.774 162.434 238.145 160.409L238.425 162.551C235.206 163.626 231.921 164.489 228.59 165.135C226.859 165.266 225.173 165.744 223.631 166.54C222.09 167.336 220.724 168.434 219.617 169.769C215.632 174.636 213.814 206.419 213.418 208.585C212.742 212.101 219.57 216.571 223.066 210.284C223.789 208.981 225.047 186.79 226.073 184.625L228.03 223.859H263.222L265.739 184.625C266.764 186.79 267.906 208.422 268 209.935C268.279 214.126 275.807 214.965 277.089 209.283C277.601 206.955 276.18 174.659 272.195 169.792L272.171 169.769Z" fill="#26435D"/>
<path d="M255.879 160.385C255.857 160.761 255.689 161.113 255.41 161.366C255.131 161.619 254.763 161.751 254.387 161.736H238.329C238.143 161.746 237.956 161.718 237.779 161.656C237.603 161.593 237.441 161.496 237.302 161.371C237.163 161.245 237.051 161.094 236.971 160.924C236.892 160.755 236.846 160.572 236.838 160.385C236.859 160.009 237.027 159.657 237.306 159.404C237.586 159.151 237.953 159.019 238.329 159.034H254.387C254.763 159.019 255.131 159.151 255.41 159.404C255.689 159.657 255.857 160.009 255.879 160.385Z" fill="#26435D"/>
<path d="M253.899 160.383H237.935V167.624H253.899V160.383Z" fill="#26435D"/>
<path d="M243.713 129.836C243.154 130.045 242.151 129.975 241.452 130.138C240.537 130.327 239.656 130.657 238.842 131.116C237.394 131.976 236.228 133.238 235.486 134.749C234.158 137.45 233.156 141.874 235.043 144.552C235.533 144.435 236.045 144.132 236.558 144.039C236.791 145.739 236.092 147.276 236.488 149.045C237.108 150.548 238.047 151.898 239.238 153.004C240.325 154.062 241.665 154.823 243.13 155.216C244.328 155.779 245.316 156.709 245.95 157.87C246.999 155.332 250.565 155.309 252.499 153.516C254.876 151.327 254.62 148.859 256.112 146.368C256.251 146.414 256.461 146.414 256.601 146.461C257.814 144.357 258.389 141.946 258.256 139.522C258.435 137.337 258.058 135.142 257.16 133.142C255.812 131.415 253.868 130.252 251.707 129.882C249.765 129.7 247.806 129.825 245.904 130.255C244.878 130.418 244.249 129.836 243.247 129.905L243.736 129.789L243.713 129.836Z" fill="#26435D"/>
<path d="M245.37 130.79C244.438 129.346 241.688 129.882 240.336 130.464C238.264 131.421 236.596 133.078 235.628 135.144C234.16 138.078 233.088 143.387 235.605 146.088C235.791 145.855 236.141 145.622 236.327 145.366C236.397 146.67 235.745 147.788 236.048 149.185C236.545 150.794 237.452 152.246 238.681 153.399C239.938 154.238 241.302 154.904 242.736 155.378C243.928 156.093 245.038 156.937 246.046 157.893C246.131 156.791 246.1 155.683 245.953 154.587C245.836 153.795 245.3 153.702 244.997 153.097C244.624 152.352 245.23 152.002 245.23 151.164C245.253 149.557 243.389 150.675 243.925 148.603C244.28 147.751 244.313 146.799 244.018 145.925C243.692 145.11 242.946 144.388 242.876 143.48C243.156 143.527 243.529 143.387 243.785 143.457C244.065 141.664 241.198 139.894 241.781 138.125C242.2 136.797 243.808 138.218 244.857 138.241C244.88 137.799 244.857 137.333 244.88 136.867C245.65 137.1 245.626 138.218 246.419 138.567C247.004 136.884 247.125 135.074 246.768 133.328C246.695 132.731 246.471 132.164 246.116 131.678C245.761 131.193 245.287 130.807 244.741 130.557L245.347 130.767L245.37 130.79Z" fill="#26435D"/>
<path d="M246.789 133.26C247.325 133.213 248.397 132.235 249.143 131.979C249.744 131.744 250.386 131.633 251.031 131.653C251.676 131.673 252.31 131.823 252.895 132.095C256.857 134.214 254.154 138.219 252.406 140.711C253.162 140.015 254.039 139.463 254.993 139.081C255.109 140.385 253.804 141.619 253.595 142.876C254.224 142.806 254.806 142.364 255.482 142.364C255.669 143.924 254.037 145.275 253.105 146.415C254.201 147.044 253.105 149.396 252.686 150.257C252.039 151.401 251.138 152.381 250.052 153.121C248.491 154.309 245.834 155.31 246.02 157.499C247.105 156.467 248.338 155.604 249.679 154.938C250.976 154.541 252.127 153.772 252.989 152.726C254.111 150.591 255.085 148.382 255.902 146.113C255.948 146.229 256.275 146.578 256.345 146.765C257.673 144.848 258.344 142.552 258.256 140.222C258.523 138.054 258.107 135.856 257.067 133.935C255.953 132.262 254.342 130.98 252.461 130.27C250.579 129.56 248.522 129.457 246.58 129.976C246.113 130.07 244.715 130.209 244.552 130.722C244.366 131.327 246.323 133.003 246.929 133.283C246.958 133.096 246.917 132.905 246.813 132.747V133.283L246.789 133.26Z" fill="#26435D"/>
<path d="M268.228 244.629C268.461 243.301 268.228 226.583 268.228 225.163V207.699C268.228 195.521 259.395 185.648 248.488 185.648H242.079C231.172 185.648 222.339 195.521 222.339 207.699V225.163C222.339 226.583 222.106 243.278 222.339 244.629H268.251H268.228Z" fill="#003665"/>
<path d="M198.872 213.73C197.73 213.451 199.921 214.219 198.872 213.73C197.707 213.195 193.465 211.146 192.3 210.587C191.134 210.028 189.946 209.562 188.781 209.027C187.196 208.305 183.63 207.723 182.535 206.302C181.649 205.138 184.632 202.297 185.425 200.97C186.031 199.969 186.38 198.828 187.056 197.873C187.709 196.988 187.662 196.965 188.431 197.291C187.219 196.663 189.55 197.78 188.431 197.291C189.503 197.85 193.885 200.877 194.957 201.389C196.153 201.92 197.223 202.699 198.095 203.675C198.967 204.65 199.621 205.8 200.014 207.047C200.643 208.957 201.226 212.589 199.105 213.823L198.825 213.684L198.872 213.73Z" fill="#26435D"/>
<path d="M147.788 213.73C146.74 214.219 148.907 213.451 147.788 213.73C148.954 213.195 153.195 211.146 154.361 210.587C155.526 210.028 156.714 209.562 157.88 209.027C159.465 208.305 163.03 207.723 164.126 206.302C165.011 205.138 162.028 202.297 161.236 200.97C160.653 199.969 160.28 198.828 159.604 197.873C158.952 196.988 158.998 196.965 158.229 197.291C157.111 197.78 159.441 196.663 158.229 197.291C157.157 197.85 152.776 200.877 151.704 201.389C150.507 201.92 149.438 202.699 148.566 203.675C147.694 204.65 147.039 205.8 146.646 207.047C146.017 208.957 145.435 212.589 147.555 213.823L147.812 213.684L147.788 213.73Z" fill="#26435D"/>
<path d="M190.76 213.822H155.965V217.105H190.76V213.822Z" fill="#26435D"/>
<path d="M181.442 148.604H166.293V166.696H181.442V148.604Z" fill="#26435D"/>
<path d="M183.843 146.46C183.843 151.512 178.227 159.592 173.892 159.592C169.161 159.592 163.917 151.489 163.917 146.46C164.133 143.968 165.276 141.648 167.121 139.958C168.965 138.268 171.377 137.33 173.88 137.33C176.383 137.33 178.795 138.268 180.64 139.958C182.484 141.648 183.627 143.968 183.843 146.46Z" fill="#26435D"/>
<path d="M164.215 150.187C163.469 149.581 160.23 144.505 163.26 145.413C164.844 145.879 165.054 150.023 164.448 150.652L164.192 150.187H164.215Z" fill="#26435D"/>
<path d="M183.514 150.187C184.259 149.581 187.499 144.505 184.469 145.413C182.884 145.879 182.675 150.023 183.281 150.652L183.537 150.187H183.514Z" fill="#26435D"/>
<path d="M162.749 145.133C162.749 141.035 162.866 137.286 167.247 134.911C169.427 133.862 171.837 133.381 174.253 133.511C176.669 133.641 179.013 134.379 181.067 135.656C181.958 136.228 182.711 136.99 183.272 137.888C183.832 138.786 184.185 139.797 184.307 140.848C184.423 141.756 185.216 145.296 183.538 145.342C182.652 143.293 181.067 137.751 176.989 138.427C175.287 138.706 174.635 141.756 172.281 140.825C170.44 140.126 170.789 137.309 168.016 138.962C166.683 139.835 165.618 141.06 164.94 142.501C164.52 143.41 164.474 145.575 163.774 146.157C163.425 145.831 163.238 145.272 162.889 145.04L162.749 145.156V145.133Z" fill="#26435D"/>
<path d="M173.611 133.515C173.796 134.355 173.777 135.227 173.554 136.058C173.331 136.889 172.91 137.654 172.329 138.288C172.072 138.591 171.187 139.033 171.117 139.383C171.024 139.778 171.723 140.407 172.072 140.57C172.59 140.761 173.154 140.78 173.683 140.625C174.212 140.47 174.677 140.149 175.009 139.709C175.33 139.292 175.749 138.959 176.228 138.74C176.707 138.521 177.233 138.422 177.759 138.451C179.787 138.451 181.068 140.244 181.954 141.595C182.778 142.862 183.392 144.253 183.772 145.716C184.191 145.716 184.448 145.297 184.914 145.274C185.064 142.92 184.739 140.56 183.958 138.335C183.419 137.329 182.682 136.441 181.791 135.727C180.854 134.859 179.717 134.236 178.481 133.911C176.934 133.334 175.258 133.19 173.634 133.492L173.611 133.515Z" fill="#26435D"/>
<path d="M166.269 162.388C167.093 163.502 168.198 164.38 169.47 164.932C170.743 165.484 172.139 165.691 173.517 165.531C176.43 165.531 179.949 164.926 181.371 162.691C181.441 163.249 181.697 162.877 181.814 163.389C181.953 163.948 181.534 164.507 181.231 165.089C180.462 166.626 179.739 168.162 179.063 169.746C177.402 173.054 175.427 176.196 173.167 179.13C172.774 178.327 172.47 177.483 172.258 176.615C171.803 175.596 171.281 174.608 170.697 173.658C169.881 172.167 168.926 170.677 168.156 169.234C167.527 168.046 166.805 166.812 166.292 165.624C165.982 164.535 165.841 163.404 165.873 162.271L166.245 162.388H166.269Z" fill="#26435D"/>
<path d="M183.841 213.824H166.105V161.945C168.649 163.25 171.473 163.914 174.332 163.878C176.802 163.732 179.237 163.222 181.557 162.364L183.841 213.847V213.824Z" fill="#26435D"/>
<path d="M200.132 170.304C199.025 168.969 197.66 167.871 196.118 167.075C194.577 166.279 192.89 165.801 191.16 165.671C187.821 165.024 184.528 164.161 181.302 163.086L181.441 163.296C181.838 157.661 166.736 162.97 166.083 160.944L166.363 163.086C163.144 164.161 159.859 165.024 156.528 165.671C154.797 165.801 153.111 166.279 151.569 167.075C150.028 167.871 148.662 168.969 147.555 170.304C143.57 175.171 141.752 206.954 141.356 209.12C140.68 212.659 147.508 217.106 151.004 210.82C151.727 209.516 152.985 187.325 154.011 185.16L155.968 224.395H191.16L193.677 185.16C194.679 187.325 195.844 208.934 195.937 210.47C196.217 214.662 203.745 215.5 205.003 209.818C205.516 207.49 204.094 175.194 200.109 170.328L200.132 170.304Z" fill="#26435D"/>
<path d="M183.839 160.944C183.818 161.319 183.65 161.672 183.37 161.925C183.091 162.177 182.724 162.31 182.347 162.294H166.29C166.103 162.304 165.916 162.277 165.74 162.215C165.563 162.152 165.401 162.055 165.262 161.929C165.124 161.804 165.011 161.652 164.932 161.483C164.852 161.314 164.807 161.13 164.798 160.944C164.819 160.568 164.988 160.215 165.267 159.963C165.546 159.71 165.914 159.577 166.29 159.593H182.347C182.724 159.577 183.091 159.71 183.37 159.963C183.65 160.215 183.818 160.568 183.839 160.944Z" fill="#26435D"/>
<path d="M181.859 160.943H165.895V168.185H181.859V160.943Z" fill="#26435D"/>
<path d="M171.654 130.371C171.095 130.581 170.093 130.511 169.394 130.674C168.113 130.929 166.909 131.478 165.878 132.278C164.846 133.078 164.015 134.107 163.451 135.284C162.123 137.962 161.12 142.409 163.008 145.087C163.498 144.97 164.01 144.668 164.523 144.575C164.756 146.274 164.057 147.811 164.453 149.581C165.073 151.083 166.011 152.433 167.203 153.539C168.29 154.597 169.63 155.359 171.095 155.751C172.293 156.315 173.281 157.244 173.915 158.406C174.964 155.868 178.53 155.844 180.464 154.051C182.841 151.863 182.585 149.394 184.076 146.926C184.216 146.973 184.426 146.973 184.566 147.019C185.779 144.916 186.354 142.505 186.221 140.081C186.399 137.896 186.023 135.701 185.125 133.701C183.777 131.973 181.832 130.811 179.672 130.441C177.73 130.258 175.771 130.384 173.869 130.813C172.843 130.976 172.214 130.394 171.212 130.464L171.678 130.348L171.654 130.371Z" fill="#26435D"/>
<path d="M173.33 131.35C172.398 129.907 169.648 130.442 168.296 131.024C166.219 131.975 164.55 133.634 163.589 135.705C162.12 138.639 161.048 143.947 163.565 146.648C163.752 146.416 164.101 146.183 164.288 145.927C164.358 147.231 163.705 148.348 164.008 149.769C164.505 151.378 165.413 152.83 166.642 153.983C167.898 154.822 169.262 155.488 170.697 155.962C171.889 156.677 172.998 157.521 174.006 158.477C174.092 157.375 174.06 156.266 173.913 155.171C173.796 154.379 173.26 154.286 172.957 153.68C172.585 152.935 173.19 152.586 173.19 151.748C173.214 150.141 171.349 151.259 171.885 149.186C172.241 148.335 172.274 147.383 171.979 146.509C171.652 145.694 170.907 144.972 170.837 144.064C171.093 144.11 171.489 143.971 171.746 144.041C172.025 142.248 169.159 140.478 169.741 138.708C170.161 137.381 171.769 138.802 172.818 138.825C172.841 138.382 172.818 137.917 172.841 137.451C173.61 137.684 173.587 138.801 174.379 139.151C174.965 137.468 175.085 135.658 174.729 133.912C174.66 133.314 174.438 132.744 174.082 132.258C173.727 131.772 173.251 131.387 172.701 131.141L173.307 131.35H173.33Z" fill="#26435D"/>
<path d="M174.751 133.793C175.287 133.747 176.359 132.769 177.105 132.513C177.705 132.277 178.348 132.166 178.993 132.186C179.638 132.206 180.272 132.357 180.857 132.629C184.819 134.748 182.115 138.753 180.367 141.244C181.124 140.549 182 139.997 182.954 139.614C183.094 140.918 181.766 142.152 181.556 143.41C182.185 143.34 182.768 142.898 183.444 142.898C183.63 144.458 181.999 145.808 181.066 146.949C182.162 147.578 181.066 149.929 180.624 150.791C179.982 151.932 179.08 152.906 177.99 153.632C176.429 154.819 173.772 155.821 173.958 158.009C175.049 156.985 176.281 156.122 177.617 155.448C178.914 155.052 180.065 154.282 180.927 153.236C182.049 151.101 183.023 148.892 183.84 146.623C183.886 146.74 184.213 147.089 184.283 147.275C185.621 145.363 186.293 143.064 186.194 140.732C186.461 138.564 186.045 136.367 185.005 134.445C183.887 132.776 182.276 131.498 180.396 130.788C178.516 130.078 176.461 129.973 174.518 130.487C174.051 130.58 172.653 130.743 172.49 131.232C172.304 131.837 174.261 133.537 174.867 133.793C174.896 133.606 174.855 133.415 174.751 133.258V133.793Z" fill="#26435D"/>
<path d="M196.193 244.629C196.427 243.301 196.193 226.583 196.193 225.163V207.699C196.193 195.521 187.361 185.648 176.454 185.648H170.045C159.138 185.648 150.305 195.521 150.305 207.699V225.163C150.305 226.583 150.072 243.278 150.305 244.629H196.217H196.193Z" fill="#003665"/>
<path d="M173.331 211.774C172.142 211.472 174.426 212.287 173.331 211.774L166.455 208.468C165.244 207.886 163.985 207.397 162.773 206.838C161.118 206.093 157.39 205.464 156.248 203.974C155.315 202.763 158.462 199.783 159.277 198.409C159.907 197.361 160.279 196.15 161.002 195.172C161.678 194.241 161.631 194.218 162.447 194.567C161.188 193.915 163.612 195.079 162.447 194.567C163.589 195.149 168.18 198.316 169.299 198.875C170.551 199.434 171.67 200.252 172.582 201.276C173.494 202.299 174.178 203.505 174.589 204.812C175.242 206.815 175.871 210.61 173.634 211.914L173.354 211.774H173.331Z" fill="#8A4A2A"/>
<path d="M119.822 211.774C118.726 212.287 121.01 211.472 119.822 211.774L126.697 208.468C127.909 207.886 129.167 207.397 130.379 206.838C132.034 206.093 135.763 205.464 136.905 203.974C137.837 202.763 134.691 199.783 133.875 198.409C133.246 197.361 132.873 196.15 132.15 195.172C131.474 194.241 131.521 194.218 130.705 194.567C129.54 195.079 131.964 193.915 130.705 194.567C129.563 195.149 124.972 198.316 123.853 198.875C122.599 199.43 121.478 200.247 120.565 201.272C119.653 202.296 118.97 203.503 118.563 204.812C117.911 206.815 117.281 210.61 119.519 211.914L119.798 211.774H119.822Z" fill="#8A4A2A"/>
<path d="M164.848 211.889H128.398V215.312H164.848V211.889Z" fill="#182A36"/>
<path d="M155.081 143.551H139.21V162.504H155.081V143.551Z" fill="#D2B18D"/>
<path d="M157.595 141.292C157.595 146.578 151.698 155.053 147.154 155.053C142.19 155.053 136.713 146.578 136.713 141.292C136.959 138.696 138.165 136.284 140.096 134.529C142.027 132.773 144.543 131.801 147.154 131.801C149.764 131.801 152.281 132.773 154.212 134.529C156.143 136.284 157.349 138.696 157.595 141.292Z" fill="#D2B18D"/>
<path d="M137.043 145.228C136.274 144.599 132.872 139.267 136.065 140.222C137.719 140.71 137.952 145.041 137.323 145.717L137.067 145.228H137.043Z" fill="#E9CCAA"/>
<path d="M157.249 145.228C158.018 144.599 161.444 139.267 158.252 140.222C156.597 140.71 156.364 145.041 156.993 145.717L157.249 145.228Z" fill="#E9CCAA"/>
<path d="M135.505 139.916C135.505 135.609 135.621 131.697 140.236 129.205C142.517 128.103 145.041 127.596 147.571 127.73C150.102 127.864 152.557 128.636 154.709 129.974C155.641 130.57 156.428 131.366 157.012 132.305C157.597 133.243 157.964 134.3 158.088 135.399C158.205 136.354 159.044 140.056 157.272 140.103C156.34 137.96 154.685 132.139 150.397 132.838C148.603 133.14 147.95 136.307 145.456 135.353C143.545 134.607 143.895 131.673 141.005 133.397C139.608 134.306 138.493 135.589 137.789 137.099C137.346 138.054 137.299 140.312 136.577 140.918C136.227 140.568 136.018 139.986 135.645 139.753L135.505 139.87V139.916Z" fill="#9FA8B0"/>
<path d="M146.877 127.763C147.07 128.645 147.048 129.56 146.813 130.431C146.578 131.302 146.136 132.104 145.525 132.769C145.246 133.095 144.337 133.561 144.244 133.91C144.127 134.329 144.873 134.981 145.246 135.144C145.788 135.348 146.381 135.37 146.936 135.206C147.492 135.042 147.978 134.701 148.322 134.236C148.654 133.798 149.09 133.45 149.59 133.222C150.091 132.995 150.64 132.895 151.189 132.932C153.31 132.932 154.661 134.818 155.593 136.239C156.462 137.56 157.108 139.016 157.505 140.546C157.947 140.546 158.227 140.127 158.693 140.081C158.856 137.614 158.507 135.141 157.668 132.816C157.11 131.755 156.331 130.826 155.384 130.091C154.405 129.178 153.21 128.529 151.911 128.205C150.29 127.598 148.533 127.445 146.831 127.763H146.877Z" fill="#8194A0"/>
<path d="M139.185 157.988C140.052 159.153 141.21 160.072 142.543 160.652C143.876 161.232 145.338 161.453 146.783 161.294C149.836 161.294 153.518 160.665 155.009 158.314C155.079 158.896 155.359 158.5 155.476 159.035C155.615 159.618 155.196 160.2 154.87 160.828C154.077 162.435 153.308 164.042 152.586 165.695C150.858 169.167 148.79 172.459 146.41 175.521C146.001 174.679 145.681 173.797 145.454 172.89C144.975 171.825 144.43 170.79 143.823 169.793C142.984 168.233 141.958 166.696 141.143 165.159C140.49 163.925 139.744 162.621 139.185 161.387C138.852 160.254 138.71 159.074 138.765 157.895L139.162 158.011L139.185 157.988Z" fill="#9FA8B0"/>
<path d="M157.597 211.889H139.022V157.543C141.688 158.908 144.65 159.596 147.646 159.545C150.234 159.391 152.786 158.858 155.22 157.962L157.62 211.889H157.597Z" fill="#9FA8B0"/>
<path d="M174.656 166.275C173.498 164.877 172.069 163.728 170.455 162.895C168.841 162.063 167.075 161.565 165.264 161.432C161.769 160.747 158.321 159.845 154.939 158.731L155.079 158.94C155.499 153.026 139.674 158.591 138.998 156.472L139.301 158.731C135.931 159.858 132.49 160.761 129 161.432C127.191 161.576 125.429 162.078 123.816 162.909C122.204 163.741 120.773 164.885 119.608 166.275C115.436 171.375 113.549 204.672 113.106 206.93C112.407 210.632 119.561 215.313 123.22 208.7C123.99 207.326 125.295 184.088 126.367 181.829L128.418 222.927H165.287L167.921 181.829C168.993 184.088 170.181 206.744 170.298 208.327C170.577 212.705 178.478 213.59 179.806 207.652C180.342 205.23 178.874 171.375 174.679 166.275H174.656Z" fill="#01ADFF"/>
<path d="M157.598 156.473C157.575 156.865 157.397 157.231 157.105 157.493C156.813 157.754 156.429 157.89 156.037 157.87H139.21C138.818 157.89 138.434 157.754 138.142 157.493C137.849 157.231 137.672 156.865 137.648 156.473C137.672 156.082 137.849 155.715 138.142 155.454C138.434 155.192 138.818 155.056 139.21 155.076H156.037C156.429 155.056 156.813 155.192 157.105 155.454C157.397 155.715 157.575 156.082 157.598 156.473Z" fill="#0D9DE1"/>
<path d="M155.523 156.473H138.79V164.063H155.523V156.473Z" fill="#0EB1FF"/>
<path d="M144.826 124.455C144.05 124.611 143.263 124.712 142.472 124.758C141.514 124.952 140.594 125.298 139.746 125.782C138.237 126.69 137.017 128.006 136.226 129.578C134.851 132.395 133.779 137.052 135.76 139.87C136.273 139.753 136.809 139.427 137.345 139.334C137.578 141.104 136.856 142.734 137.252 144.573C137.896 146.145 138.874 147.559 140.118 148.718C141.258 149.827 142.661 150.629 144.197 151.046C145.462 151.63 146.501 152.611 147.157 153.84C148.252 151.186 151.981 151.163 154.009 149.277C156.502 146.995 156.246 144.41 157.784 141.802C157.924 141.849 158.157 141.849 158.297 141.895C159.565 139.691 160.172 137.169 160.045 134.63C160.237 132.34 159.835 130.039 158.879 127.948C157.47 126.139 155.432 124.926 153.17 124.548C151.134 124.362 149.081 124.495 147.087 124.944C146.015 125.107 145.362 124.502 144.313 124.572L144.803 124.455H144.826Z" fill="black"/>
<path d="M170.533 244.63C170.766 243.232 170.533 225.722 170.533 224.232V205.93C170.533 193.17 161.281 182.832 149.837 182.832H143.102C131.682 182.832 122.407 193.17 122.407 205.93V224.232C122.407 225.699 122.174 243.209 122.407 244.63H170.51H170.533Z" fill="#050E2B"/>
<path d="M238.165 212.474C236.977 212.171 239.26 212.986 238.165 212.474C236.953 211.915 232.502 209.749 231.29 209.167C230.078 208.585 228.82 208.096 227.608 207.537C225.953 206.769 222.224 206.163 221.082 204.673C220.15 203.462 223.296 200.482 224.112 199.108C224.741 198.06 225.114 196.85 225.813 195.872C226.489 194.94 226.442 194.917 227.258 195.266C226 194.614 228.423 195.778 227.258 195.266C228.377 195.848 232.991 199.015 234.11 199.574C235.365 200.129 236.486 200.947 237.398 201.971C238.311 202.995 238.993 204.202 239.4 205.511C240.053 207.514 240.682 211.309 238.445 212.613L238.165 212.474Z" fill="#8A4A2A"/>
<path d="M184.656 212.474C183.561 212.986 185.845 212.171 184.656 212.474C185.868 211.915 190.319 209.749 191.531 209.167C192.743 208.585 194.002 208.096 195.213 207.537C196.868 206.769 200.597 206.163 201.739 204.673C202.671 203.462 199.525 200.482 198.709 199.108C198.08 198.06 197.707 196.85 196.985 195.872C196.309 194.94 196.355 194.917 195.563 195.266C194.398 195.778 196.822 194.614 195.563 195.266C194.421 195.848 189.83 199.015 188.711 199.574C187.456 200.132 186.334 200.95 185.418 201.974C184.502 202.997 183.813 204.203 183.398 205.511C182.745 207.514 182.116 211.309 184.353 212.613L184.633 212.474H184.656Z" fill="#8A4A2A"/>
<path d="M229.683 212.588H193.233V216.011H229.683V212.588Z" fill="#182A36"/>
<path d="M219.916 144.248H204.045V163.202H219.916V144.248Z" fill="#D2B18D"/>
<path d="M222.412 141.989C222.412 147.275 216.515 155.751 211.971 155.751C207.007 155.751 201.53 147.275 201.53 141.989C201.776 139.393 202.982 136.981 204.913 135.226C206.844 133.471 209.36 132.498 211.971 132.498C214.581 132.498 217.098 133.471 219.029 135.226C220.96 136.981 222.166 139.393 222.412 141.989Z" fill="#D2B18D"/>
<path d="M201.856 145.904C201.087 145.275 197.684 139.943 200.877 140.897C202.532 141.386 202.765 145.717 202.136 146.393L201.879 145.904H201.856Z" fill="#E9CCAA"/>
<path d="M222.084 145.904C222.853 145.275 226.279 139.943 223.086 140.897C221.431 141.386 221.198 145.717 221.827 146.393L222.084 145.904Z" fill="#E9CCAA"/>
<path d="M200.339 140.615C200.339 136.308 200.456 132.396 205.07 129.904C207.352 128.802 209.875 128.295 212.406 128.429C214.936 128.564 217.392 129.335 219.543 130.673C220.473 131.271 221.259 132.068 221.843 133.006C222.427 133.944 222.796 135 222.922 136.098C223.039 137.053 223.878 140.755 222.107 140.802C221.175 138.66 219.52 132.838 215.232 133.537C213.437 133.84 212.785 137.03 210.291 136.052C208.356 135.307 208.729 132.373 205.839 134.119C204.442 135.028 203.328 136.311 202.623 137.821C202.18 138.776 202.134 141.058 201.411 141.64C201.062 141.291 200.852 140.709 200.479 140.476L200.339 140.592V140.615Z" fill="#9FA8B0"/>
<path d="M211.716 128.439C211.909 129.32 211.887 130.235 211.652 131.107C211.416 131.978 210.975 132.78 210.364 133.445C210.085 133.771 209.176 134.237 209.083 134.586C208.966 135.005 209.712 135.657 210.085 135.82C210.626 136.024 211.22 136.045 211.775 135.882C212.331 135.718 212.817 135.377 213.161 134.912C213.496 134.472 213.936 134.122 214.441 133.894C214.945 133.667 215.499 133.568 216.051 133.608C218.172 133.631 219.523 135.494 220.456 136.914C221.315 138.241 221.96 139.695 222.367 141.222C222.81 141.222 223.066 140.803 223.555 140.756C223.718 138.29 223.369 135.817 222.53 133.492C221.972 132.431 221.193 131.502 220.246 130.767C219.268 129.854 218.072 129.205 216.773 128.881C215.149 128.286 213.396 128.133 211.693 128.439H211.716Z" fill="#8194A0"/>
<path d="M204.023 158.685C204.887 159.854 206.045 160.776 207.378 161.356C208.712 161.937 210.176 162.156 211.621 161.991C214.674 161.991 218.356 161.363 219.848 159.011C219.918 159.593 220.198 159.197 220.314 159.733C220.454 160.315 220.034 160.897 219.708 161.526C218.916 163.132 218.147 164.739 217.424 166.392C215.692 169.861 213.623 173.152 211.248 176.218C210.837 175.38 210.525 174.497 210.316 173.587C209.837 172.522 209.292 171.488 208.685 170.49C207.846 168.93 206.82 167.393 206.004 165.856C205.352 164.622 204.606 163.318 204.047 162.084C203.713 160.944 203.571 159.755 203.627 158.568L204.023 158.685Z" fill="#9FA8B0"/>
<path d="M222.409 212.591H203.834V158.244C206.493 159.608 209.446 160.295 212.434 160.247C215.023 160.092 217.575 159.559 220.009 158.663L222.409 212.591Z" fill="#9FA8B0"/>
<path d="M239.496 166.974C238.337 165.576 236.908 164.427 235.294 163.594C233.681 162.762 231.915 162.264 230.103 162.131C226.607 161.457 223.158 160.554 219.779 159.43L219.919 159.639C220.338 153.725 204.514 159.313 203.838 157.171L204.141 159.43C200.764 160.56 197.315 161.463 193.817 162.131C192.008 162.274 190.245 162.777 188.633 163.608C187.02 164.44 185.59 165.584 184.425 166.974C180.253 172.073 178.365 205.37 177.922 207.629C177.223 211.331 184.378 216.012 188.037 209.399C188.806 208.025 190.111 184.787 191.183 182.505L193.234 223.602H230.103L232.737 182.505C233.786 184.764 234.998 207.419 235.114 209.003C235.394 213.38 243.294 214.265 244.623 208.328C245.159 205.906 243.691 172.073 239.496 166.951V166.974Z" fill="#FF6B5F"/>
<path d="M222.41 157.17C222.387 157.562 222.209 157.928 221.917 158.19C221.625 158.452 221.241 158.587 220.849 158.567H204.022C203.63 158.587 203.246 158.452 202.954 158.19C202.661 157.928 202.484 157.562 202.46 157.17C202.484 156.779 202.661 156.413 202.954 156.151C203.246 155.889 203.63 155.754 204.022 155.773H220.849C221.241 155.754 221.625 155.889 221.917 156.151C222.209 156.413 222.387 156.779 222.41 157.17Z" fill="#FE5345"/>
<path d="M220.339 157.17H203.628V164.761H220.339V157.17Z" fill="#FF6B5F"/>
<path d="M209.666 125.156C208.889 125.312 208.102 125.413 207.312 125.459C206.35 125.65 205.427 126.005 204.585 126.507C203.077 127.414 201.856 128.73 201.066 130.302C199.691 133.12 198.619 137.777 200.6 140.571C201.112 140.454 201.648 140.128 202.184 140.035C202.417 141.805 201.695 143.435 202.091 145.274C202.727 146.851 203.706 148.267 204.958 149.419C206.097 150.529 207.501 151.33 209.036 151.747C210.301 152.331 211.341 153.313 211.996 154.541C213.091 151.887 216.82 151.864 218.848 149.978C221.342 147.696 221.085 145.111 222.623 142.503C222.763 142.55 222.996 142.55 223.136 142.596C224.182 140.435 224.773 138.082 224.873 135.683C224.973 133.284 224.58 130.89 223.719 128.649C222.309 126.841 220.272 125.627 218.009 125.249C215.973 125.063 213.921 125.196 211.926 125.645C210.854 125.808 210.202 125.203 209.153 125.273L209.642 125.156H209.666Z" fill="#182A36"/>
<path d="M235.367 244.63C235.6 243.232 235.367 225.722 235.367 224.232V205.93C235.367 193.17 226.115 182.832 214.672 182.832H207.96C196.54 182.832 187.264 193.17 187.264 205.93V224.232C187.264 225.699 187.031 243.232 187.264 244.63H235.367Z" fill="#050E2B"/>
<path d="M304.49 204.882C303.302 204.579 305.586 205.394 304.49 204.882L297.615 201.575C296.403 200.993 295.145 200.504 293.933 199.945C292.278 199.2 288.549 198.572 287.407 197.081C286.475 195.871 289.621 192.89 290.437 191.516C291.066 190.469 291.439 189.258 292.162 188.28C292.838 187.348 292.791 187.325 293.607 187.674C292.348 187.022 294.772 188.187 293.607 187.674C294.725 188.256 299.34 191.423 300.458 191.982C301.711 192.541 302.83 193.36 303.742 194.383C304.654 195.407 305.338 196.612 305.749 197.92C306.401 199.922 307.031 203.717 304.793 205.021L304.514 204.882H304.49Z" fill="#8A4A2A"/>
<path d="M253.572 211.354C252.477 211.867 254.761 211.052 253.572 211.354L260.447 208.048C261.659 207.466 262.918 206.977 264.13 206.418C265.784 205.673 269.513 205.044 270.655 203.554C271.587 202.343 268.441 199.363 267.625 197.989C266.996 196.941 266.623 195.73 265.901 194.752C265.225 193.821 265.271 193.798 264.479 194.147C263.314 194.659 265.738 193.495 264.479 194.147C263.337 194.729 258.746 197.896 257.627 198.455C256.372 199.013 255.25 199.831 254.334 200.855C253.418 201.878 252.729 203.084 252.314 204.392C251.661 206.395 251.032 210.19 253.269 211.494L253.549 211.354H253.572Z" fill="#8A4A2A"/>
<path d="M298.599 211.449H262.149V214.872H298.599V211.449Z" fill="#182A36"/>
<path d="M288.81 143.131H272.938V162.085H288.81V143.131Z" fill="#D2B18D"/>
<path d="M291.328 140.872C291.328 146.158 285.455 154.633 280.887 154.633C275.923 154.633 270.446 146.158 270.446 140.872C270.692 138.276 271.898 135.864 273.829 134.109C275.76 132.354 278.276 131.381 280.887 131.381C283.497 131.381 286.014 132.354 287.945 134.109C289.876 135.864 291.082 138.276 291.328 140.872Z" fill="#D2B18D"/>
<path d="M270.771 144.784C270.002 144.156 266.6 138.823 269.793 139.778C271.447 140.267 271.68 144.598 271.051 145.273L270.795 144.808L270.771 144.784Z" fill="#E9CCAA"/>
<path d="M288.413 138.312C289.183 137.683 292.608 132.351 289.416 133.305C287.761 133.794 287.528 138.125 288.157 138.801L288.413 138.335V138.312Z" fill="#E9CCAA"/>
<path d="M269.255 139.477C269.255 135.169 269.372 131.257 273.986 128.766C276.268 127.664 278.791 127.156 281.322 127.291C283.852 127.425 286.308 128.197 288.459 129.534C289.389 130.132 290.175 130.929 290.759 131.868C291.343 132.806 291.712 133.862 291.838 134.96C291.955 135.914 292.794 139.617 291.023 139.663C290.091 137.521 288.436 131.7 284.148 132.398C282.353 132.701 281.701 135.868 279.207 134.913C277.296 134.168 277.645 131.234 274.755 132.957C273.358 133.867 272.244 135.149 271.539 136.659C271.097 137.614 271.05 139.896 270.327 140.478C269.978 140.129 269.768 139.547 269.395 139.314L269.255 139.43V139.477Z" fill="#9FA8B0"/>
<path d="M280.632 127.322C280.825 128.203 280.803 129.118 280.568 129.989C280.332 130.861 279.891 131.663 279.28 132.328C279.001 132.654 278.092 133.119 277.999 133.469C277.882 133.888 278.628 134.563 279.001 134.703C279.543 134.907 280.136 134.928 280.691 134.764C281.247 134.6 281.733 134.26 282.077 133.795C282.409 133.357 282.845 133.008 283.345 132.781C283.846 132.553 284.395 132.453 284.944 132.491C287.064 132.491 288.416 134.354 289.348 135.797C290.217 137.119 290.863 138.574 291.259 140.105C291.702 140.105 291.982 139.686 292.448 139.639C292.607 137.175 292.266 134.704 291.446 132.374C290.888 131.314 290.109 130.385 289.162 129.65C288.184 128.737 286.988 128.088 285.689 127.764C284.068 127.157 282.311 127.004 280.609 127.322H280.632Z" fill="#8194A0"/>
<path d="M272.913 157.568C273.78 158.733 274.938 159.652 276.271 160.232C277.604 160.812 279.066 161.033 280.511 160.874C283.564 160.874 287.246 160.245 288.738 157.894C288.807 158.476 289.087 158.08 289.204 158.616C289.343 159.198 288.924 159.78 288.598 160.408C287.805 162.015 287.036 163.622 286.314 165.275C284.581 168.744 282.513 172.035 280.138 175.101C279.729 174.259 279.409 173.377 279.182 172.47C278.703 171.405 278.158 170.37 277.551 169.373C276.712 167.813 275.686 166.253 274.871 164.739C274.218 163.505 273.472 162.225 272.913 160.967C272.58 159.834 272.438 158.654 272.494 157.475L272.89 157.591L272.913 157.568Z" fill="#9FA8B0"/>
<path d="M291.325 211.448H272.75V157.102C275.417 158.467 278.378 159.154 281.374 159.104C283.962 158.95 286.514 158.416 288.948 157.521L291.348 211.448H291.325Z" fill="#9FA8B0"/>
<path d="M308.388 165.857C307.23 164.459 305.801 163.309 304.187 162.477C302.573 161.645 300.808 161.147 298.996 161.014C295.502 160.329 292.054 159.426 288.672 158.313L288.812 158.522C289.231 152.608 273.407 158.196 272.731 156.054L273.034 158.313C269.664 159.44 266.222 160.342 262.733 161.014C260.924 161.157 259.161 161.66 257.549 162.491C255.936 163.323 254.506 164.467 253.341 165.857C249.169 170.956 247.281 204.253 246.838 206.512C246.139 210.214 253.294 214.871 256.953 208.282C257.722 206.908 259.027 183.67 260.099 181.411L262.15 222.508H299.02L301.653 181.411C302.725 183.67 303.914 206.326 304.03 207.909C304.31 212.286 312.21 213.171 313.539 207.234C314.075 204.812 312.607 170.979 308.412 165.857H308.388Z" fill="#2DDE9A"/>
<path d="M291.326 156.032C291.303 156.423 291.125 156.79 290.833 157.051C290.541 157.313 290.157 157.449 289.765 157.429H272.938C272.546 157.449 272.162 157.313 271.87 157.051C271.577 156.79 271.4 156.423 271.376 156.032C271.4 155.64 271.577 155.274 271.87 155.012C272.162 154.751 272.546 154.615 272.938 154.635H289.765C290.157 154.615 290.541 154.751 290.833 155.012C291.125 155.274 291.303 155.64 291.326 156.032Z" fill="#2DDE9A"/>
<path d="M289.228 156.029H272.518V163.62H289.228V156.029Z" fill="#2DDE9A"/>
<path d="M278.554 124.037C277.778 124.193 276.991 124.294 276.2 124.34C275.242 124.534 274.322 124.88 273.474 125.364C271.965 126.272 270.745 127.588 269.954 129.16C268.579 131.977 267.507 136.634 269.488 139.452C270.001 139.335 270.537 139.009 271.073 138.916C271.306 140.686 270.584 142.316 270.98 144.155C271.624 145.727 272.602 147.141 273.846 148.3C274.986 149.409 276.39 150.211 277.925 150.628C279.185 151.219 280.223 152.198 280.885 153.422C281.98 150.768 285.709 150.721 287.737 148.859C290.23 146.577 289.974 143.992 291.512 141.384C291.652 141.431 291.885 141.431 292.025 141.477C293.293 139.273 293.9 136.752 293.773 134.212C293.965 131.922 293.563 129.621 292.607 127.53C291.198 125.721 289.16 124.508 286.898 124.13C284.862 123.955 282.811 124.089 280.815 124.526C279.743 124.689 279.09 124.084 278.041 124.154L278.531 124.037H278.554Z" fill="#331300"/>
<path d="M304.283 244.63C304.516 243.232 304.283 225.722 304.283 224.232V205.93C304.283 193.17 295.03 182.832 283.61 182.832H276.875C265.455 182.832 256.18 193.17 256.18 205.93V224.232C256.18 225.699 255.947 243.209 256.18 244.63H304.283Z" fill="#050E2B"/>
</svg>
